<?xml version="1.0" encoding="utf-8"?>
<!-- Generator: Adobe Illustrator 25.2.1, SVG Export Plug-In . SVG Version: 6.00 Build 0)  -->
<svg version="1.1" id="Default" xmlns="http://www.w3.org/2000/svg" xmlns:xlink="http://www.w3.org/1999/xlink" x="0px" y="0px"
	 viewBox="0 0 400.54 425.93" style="enable-background:new 0 0 400.54 425.93;" xml:space="preserve">
<style type="text/css">
	.st0{display:none;}
	.st1{display:inline;fill:#EAE8ED;}
	.st2{fill:#EAE8ED;}
	.st3{fill:#DA9E2C;}
	.st4{fill:#E3CD43;}
	.st5{fill:#455A6E;}
	.st6{fill:#5A6F88;}
	.st7{fill:#1B3240;}
	.st8{fill:#DEC2C2;}
	.st9{fill:#1E60A0;}
	.st10{fill:#C5BED1;}
	.st11{fill:#1D5080;}
	.st12{fill:#59923E;}
	.st13{fill:#2272A7;}
	.st14{fill:#D0965E;}
	.st15{fill:#B4CB4B;}
	.st16{fill:#617585;}
	.st17{fill:#592620;}
	.st18{fill:url(#SVGID_1_);}
	.st19{fill:#8B724D;}
	.st20{fill:#3D5470;}
	.st21{fill:#D8AB74;}
	.st22{fill:#63302D;}
	.st23{fill:#8A4744;}
	.st24{fill:#F0E198;}
	.st25{fill:#AD7C50;}
	.st26{fill:#C7DA52;}
	.st27{fill:#909DAD;}
	.st28{fill:#7E8DA3;}
	.st29{fill:#87A1B7;}
	.st30{fill:#BBCDDF;}
	.st31{fill:#EBEEC1;}
	.st32{fill:#D3D3AF;}
	.st33{fill:#BEBE9E;}
	.st34{fill:#101E30;}
	.st35{fill:#F1F1CE;}
	.st36{fill:#304458;}
	.st37{fill:#53708B;}
	.st38{fill:#886BF6;}
	.st39{fill:#F7509F;}
	.st40{fill:#CA287B;}
	.st41{fill:#7892B0;}
	.st42{fill:#152F3C;}
	.st43{fill:#495669;}
	.st44{fill:#657C96;}
	.st45{fill:#2F4355;}
	.st46{fill:#88BD4B;}
	.st47{fill:#523116;}
	.st48{fill:#6CAE50;}
	.st49{fill:#DC7059;}
	.st50{fill:#D53E4B;}
	.st51{opacity:0.74;}
	.st52{fill:#A6937C;}
	.st53{fill:#FBFAFC;}
	.st54{fill:#B9BCB5;}
	.st55{fill:#CCCECA;}
	.st56{fill:#82C424;}
	.st57{fill:#D8CED3;}
	.st58{fill:#A68EFE;}
	.st59{fill:#D1C9CD;}
	.st60{fill:#8140FF;}
	.st61{fill:#717F90;}
	.st62{fill:#DBCED5;}
	.st63{fill:#92AFCC;}
	.st64{fill:#C6DAEA;}
	.st65{fill:#7B93AA;}
	.st66{fill:#7599AD;}
	.st67{fill:#CEC8CC;}
</style>
<g>
	<g>
		<g class="st0">
			<path class="st1" d="M309.72,351.52l66.2,38.22c2.15,1.24,5.64,1.24,7.79,0l0,0c2.15-1.24,2.15-3.25,0-4.5l-66.2-38.22
				c-2.15-1.24-5.64-1.24-7.79,0l0,0C307.57,348.26,307.57,350.27,309.72,351.52z"/>
			<path class="st1" d="M258.58,321.99l34.99,20.2c2.15,1.24,5.64,1.24,7.79,0l0,0c2.15-1.24,2.15-3.25,0-4.5l-34.99-20.2
				c-2.15-1.24-5.64-1.24-7.79,0h0C256.43,318.73,256.43,320.75,258.58,321.99z"/>
		</g>
		<path class="st2" d="M290.1,320.13l66.2,38.22c2.15,1.24,5.64,1.24,7.79,0l0,0c2.15-1.24,2.15-3.25,0-4.5l-66.2-38.22
			c-2.15-1.24-5.64-1.24-7.79,0l0,0C287.95,316.87,287.95,318.89,290.1,320.13z"/>
		<path class="st2" d="M205.45,271.26l66.2,38.22c2.15,1.24,5.64,1.24,7.79,0l0,0c2.15-1.24,2.15-3.25,0-4.5l-66.2-38.22
			c-2.15-1.24-5.64-1.24-7.79,0l0,0C203.3,268,203.3,270.01,205.45,271.26z"/>
		<path class="st2" d="M167.43,289.41l66.2,38.22c2.15,1.24,5.64,1.24,7.79,0l0,0c2.15-1.24,2.15-3.25,0-4.5l-66.2-38.22
			c-2.15-1.24-5.64-1.24-7.79,0l0,0C165.28,286.16,165.28,288.17,167.43,289.41z"/>
		<path class="st2" d="M292.36,361.54l19.38,11.19c2.15,1.24,5.64,1.24,7.79,0l0,0c2.15-1.24,2.15-3.25,0-4.5l-19.38-11.19
			c-2.15-1.24-5.64-1.24-7.79,0l0,0C290.2,358.29,290.2,360.3,292.36,361.54z"/>
		<path class="st2" d="M126.22,265.62l19.38,11.19c2.15,1.24,5.64,1.24,7.79,0l0,0c2.15-1.24,2.15-3.25,0-4.5L134,261.13
			c-2.15-1.24-5.64-1.24-7.79,0l0,0C124.07,262.37,124.07,264.38,126.22,265.62z"/>
		<path class="st2" d="M276.93,292.47l66.2,38.22c2.15,1.24,5.64,1.24,7.79,0l0,0c2.15-1.24,2.15-3.25,0-4.5l-66.2-38.22
			c-2.15-1.24-5.64-1.24-7.79,0l0,0C274.78,289.22,274.78,291.23,276.93,292.47z"/>
		<path class="st2" d="M235.72,268.68l19.38,11.19c2.15,1.24,5.64,1.24,7.79,0l0,0c2.15-1.24,2.15-3.25,0-4.5l-19.38-11.19
			c-2.15-1.24-5.64-1.24-7.79,0l0,0C233.57,265.42,233.57,267.44,235.72,268.68z"/>
	</g>
	<g>
		<g>
			<path class="st2" d="M203.53,328.7l66.2,38.22c2.15,1.24,5.64,1.24,7.79,0l0,0c2.15-1.24,2.15-3.25,0-4.5l-66.2-38.22
				c-2.15-1.24-5.64-1.24-7.79,0l0,0C201.38,325.44,201.38,327.46,203.53,328.7z"/>
			<path class="st2" d="M152.39,299.17l34.99,20.2c2.15,1.24,5.64,1.24,7.79,0l0,0c2.15-1.24,2.15-3.25,0-4.5l-34.99-20.2
				c-2.15-1.24-5.64-1.24-7.79,0h0C150.24,295.92,150.24,297.93,152.39,299.17z"/>
		</g>
		<path class="st2" d="M183.91,297.31l66.2,38.22c2.15,1.24,5.64,1.24,7.79,0l0,0c2.15-1.24,2.15-3.25,0-4.5l-66.2-38.22
			c-2.15-1.24-5.64-1.24-7.79,0l0,0C181.76,294.06,181.76,296.07,183.91,297.31z"/>
		<path class="st2" d="M99.26,248.44l66.2,38.22c2.15,1.24,5.64,1.24,7.79,0l0,0c2.15-1.24,2.15-3.25,0-4.5l-66.2-38.22
			c-2.15-1.24-5.64-1.24-7.79,0l0,0C97.11,245.18,97.11,247.2,99.26,248.44z"/>
		<path class="st2" d="M61.24,266.6l66.2,38.22c2.15,1.24,5.64,1.24,7.79,0l0,0c2.15-1.24,2.15-3.25,0-4.5l-66.2-38.22
			c-2.15-1.24-5.64-1.24-7.79,0l0,0C59.09,263.34,59.09,265.36,61.24,266.6z"/>
		<path class="st2" d="M186.17,338.73l19.38,11.19c2.15,1.24,5.64,1.24,7.79,0l0,0c2.15-1.24,2.15-3.25,0-4.5l-19.38-11.19
			c-2.15-1.24-5.64-1.24-7.79,0l0,0C184.02,335.47,184.02,337.48,186.17,338.73z"/>
		<path class="st2" d="M20.03,242.81l19.38,11.19c2.15,1.24,5.64,1.24,7.79,0l0,0c2.15-1.24,2.15-3.25,0-4.5l-19.38-11.19
			c-2.15-1.24-5.64-1.24-7.79,0l0,0C17.88,239.55,17.88,241.56,20.03,242.81z"/>
		<path class="st2" d="M170.74,269.65l66.2,38.22c2.15,1.24,5.64,1.24,7.79,0l0,0c2.15-1.24,2.15-3.25,0-4.5l-66.2-38.22
			c-2.15-1.24-5.64-1.24-7.79,0l0,0C168.59,266.4,168.59,268.41,170.74,269.65z"/>
		<path class="st2" d="M129.53,245.86l19.38,11.19c2.15,1.24,5.64,1.24,7.79,0l0,0c2.15-1.24,2.15-3.25,0-4.5l-19.38-11.19
			c-2.15-1.24-5.64-1.24-7.79,0l0,0C127.38,242.61,127.38,244.62,129.53,245.86z"/>
	</g>
	<g>
		<g>
			<path class="st2" d="M140.66,374.26l34.99,20.2c2.15,1.24,5.64,1.24,7.79,0l0,0c2.15-1.24,2.15-3.25,0-4.5l-34.99-20.2
				c-2.15-1.24-5.64-1.24-7.79,0h0C138.51,371.01,138.51,373.02,140.66,374.26z"/>
		</g>
		<path class="st2" d="M172.18,372.4l66.2,38.22c2.15,1.24,5.64,1.24,7.79,0l0,0c2.15-1.24,2.15-3.25,0-4.5l-66.2-38.22
			c-2.15-1.24-5.64-1.24-7.79,0l0,0C170.03,369.15,170.03,371.16,172.18,372.4z"/>
		<path class="st2" d="M87.53,323.53l66.2,38.22c2.15,1.24,5.64,1.24,7.79,0l0,0c2.15-1.24,2.15-3.25,0-4.5l-66.2-38.22
			c-2.15-1.24-5.64-1.24-7.79,0l0,0C85.38,320.27,85.38,322.29,87.53,323.53z"/>
		<path class="st2" d="M49.51,341.69l66.2,38.22c2.15,1.24,5.64,1.24,7.79,0l0,0c2.15-1.24,2.15-3.25,0-4.5l-66.2-38.22
			c-2.15-1.24-5.64-1.24-7.79,0l0,0C47.36,338.43,47.36,340.45,49.51,341.69z"/>
		<path class="st2" d="M174.44,413.81L193.81,425c2.15,1.24,5.64,1.24,7.79,0l0,0c2.15-1.24,2.15-3.25,0-4.5l-19.38-11.19
			c-2.15-1.24-5.64-1.24-7.79,0l0,0C172.29,410.56,172.29,412.57,174.44,413.81z"/>
		<path class="st2" d="M8.3,317.9l19.38,11.19c2.15,1.24,5.64,1.24,7.79,0l0,0c2.15-1.24,2.15-3.25,0-4.5L16.09,313.4
			c-2.15-1.24-5.64-1.24-7.79,0l0,0C6.15,314.64,6.15,316.65,8.3,317.9z"/>
		<path class="st2" d="M159.01,344.74l66.2,38.22c2.15,1.24,5.64,1.24,7.79,0l0,0c2.15-1.24,2.15-3.25,0-4.5l-66.2-38.22
			c-2.15-1.24-5.64-1.24-7.79,0l0,0C156.86,341.49,156.86,343.5,159.01,344.74z"/>
		<path class="st2" d="M117.8,320.95l19.38,11.19c2.15,1.24,5.64,1.24,7.79,0l0,0c2.15-1.24,2.15-3.25,0-4.5l-19.38-11.19
			c-2.15-1.24-5.64-1.24-7.79,0l0,0C115.65,317.7,115.65,319.71,117.8,320.95z"/>
	</g>
</g>
<g>
	<path class="st3" d="M155.51,159.71c-0.02-0.01-0.03-0.02-0.05-0.03c-1.83-1.06-4.06-0.55-5.92,0.53l-28.33,16.36
		c-4.83,2.79-8.69,9.89-8.69,15.8v21.95l4.34,2.51v-21.95c0-5.97,3.92-13.04,8.69-15.8l28.33-16.36c2.29-1.32,4.37-1.43,5.92-0.53
		C158.37,161.36,156.94,160.53,155.51,159.71z"/>
	<path class="st4" d="M116.86,194.87v21.95l9.57-5.52l8.05-4.65l6.14-3.55l17.55-10.13l4.41-2.55v-21.95c0-3.12-1.07-5.31-2.77-6.29
		c0,0,0,0-0.01,0c-1.55-0.89-3.63-0.79-5.92,0.53l-28.32,16.36C120.79,181.82,116.86,188.89,116.86,194.87z"/>
	<path class="st5" d="M129.5,334.15c0-1.77,0-3.54,0-5.31c0,0.31-0.12,0.62-0.3,0.88c-0.5,0.73-1.56,1.16-2.42,1.34
		c-1.06,0.21-2.17,0.17-3.22-0.13c-0.51-0.15-1.01-0.35-1.44-0.71c-0.42-0.35-0.77-0.84-0.78-1.37c0,1.76,0,3.53,0,5.3
		c0,0.01,0,0.01,0,0.01c0.01,0.53,0.36,1.02,0.78,1.37c0.43,0.36,0.92,0.57,1.44,0.71c1.05,0.3,2.16,0.34,3.22,0.12
		c0.87-0.18,1.92-0.61,2.42-1.34c0.18-0.25,0.29-0.56,0.3-0.87C129.5,334.16,129.5,334.16,129.5,334.15z"/>
	<path class="st6" d="M124.34,320.94c-2.08,2.55-3.02,5.45-3,7.91c0,0.01,0,0.01,0,0.02c0.01,0.52,0.36,1.02,0.78,1.37
		c0.43,0.36,0.92,0.57,1.44,0.71c1.05,0.3,2.16,0.34,3.22,0.13c0.87-0.18,1.92-0.61,2.42-1.34c0.18-0.26,0.3-0.57,0.3-0.88v-0.02
		c-0.01-0.62,0.27-1.35,0.58-1.9c0.98-1.72,2.96-3.08,4.92-3.46h0c0.16-0.03,0.26-0.19,0.33-0.34c0.1-0.21,0.13-0.41,0.16-0.62
		c0.03-0.26,0.06-0.54,0.06-0.81c0-2.23-0.82-4.81-1.49-5.74c-0.18-0.25-0.41-0.52-0.68-0.47h0
		C130.14,316.11,126.72,318.03,124.34,320.94z"/>
	<path class="st7" d="M121.35,334.16c0,1.58,0.93,3.01,2.34,3.68c2.74,1.29,5.82-0.76,5.82-3.67c-0.01,0.31-0.12,0.61-0.3,0.87
		c-0.5,0.73-1.56,1.16-2.42,1.34c-1.06,0.22-2.17,0.17-3.22-0.12c-0.51-0.15-1.01-0.35-1.44-0.71
		C121.71,335.19,121.35,334.69,121.35,334.16z"/>
	<path class="st3" d="M129.27,257.81v6.67c0,1.65,1.29,2.97,2.72,3.8l6.41,3.7l26.63,15.37l3.71,2.15h0.02l1.51,0.88
		c0.79,0.45,1.69,0.81,2.64,1.06c3.46,0.94,7.69,0.57,10.51-1.06l38.28-22.1c1.45-0.84,2.73-2.16,2.72-3.8v-6.67
		c0,0.8-0.35,1.6-0.85,2.25c-0.51,0.65-1.17,1.14-1.87,1.54l-18.39,10.62l-19.89,11.48c-3.7,2.14-9.59,2.06-13.15,0l-38.28-22.1
		c-0.14-0.08-0.28-0.17-0.42-0.26v-0.01c-0.02,0-0.05-0.02-0.07-0.04c-0.01,0-0.02-0.01-0.03-0.02c-0.16-0.1-0.32-0.22-0.47-0.34
		c-0.17-0.14-0.33-0.28-0.49-0.44c-0.13-0.13-0.26-0.28-0.38-0.43C129.63,259.41,129.27,258.61,129.27,257.81z"/>
	<path class="st4" d="M129.27,257.75v0.06c0,0.8,0.36,1.6,0.86,2.25c0.41,0.52,0.9,0.93,1.44,1.28c0.14,0.09,0.28,0.18,0.42,0.26
		l38.28,22.1c3.56,2.06,9.45,2.14,13.15,0l19.89-11.48l18.39-10.62c0.7-0.4,1.36-0.89,1.87-1.54c0.5-0.65,0.85-1.45,0.85-2.25
		c0-0.81-0.35-1.61-0.85-2.25c-0.51-0.65-1.17-1.14-1.87-1.55l-38.28-22.1c-1.1-0.64-2.42-1.08-3.83-1.33
		c-3.17-0.56-6.77-0.14-9.32,1.33l-18.92,10.93l-5.76,3.32l-13.6,7.85c-0.7,0.41-1.35,0.9-1.86,1.55
		C129.64,256.18,129.29,256.96,129.27,257.75z"/>
	<path class="st6" d="M134.48,206.65v16.62c0,0,0,0,0,0.01c-0.06,7.35,4.16,16.88,11.11,22.88l5.76-3.32
		c-6.1-4.09-10.78-12.95-10.73-19.56V203.1L134.48,206.65z"/>
	<path class="st5" d="M149.46,299.97c0,0.02,0,0.04,0,0.06v0c0,0.28,0.09,0.54,0.23,0.78c0.36,0.59,1.01,0.97,1.68,1.21
		c0.88,0.32,1.77,0.41,2.72,0.33c1.18-0.1,2.44-0.46,3.15-1.35c-0.82-1.35-1.65-2.7-2.47-4.05c-1.5,0.27-2.83,0.07-4.07-0.55
		c-0.43-0.22-0.77-0.52-1-0.9c-0.15-0.23-0.23-0.5-0.23-0.78C149.46,296.48,149.46,298.23,149.46,299.97z"/>
	<path class="st5" d="M153.04,294.11c0.03,0.06,0.06,0.12,0.09,0.18c0.01,0.01,0.01,0.01,0.01,0.02c0,0.01,0.01,0.01,0.01,0.01
		c0.54,0.88,1.08,1.76,1.62,2.64c0.82,1.35,1.65,2.7,2.47,4.05c0.06,0.09,0.11,0.18,0.17,0.28c1.68,2.75,3.36,5.5,5.05,8.26
		c0.85-0.17,1.71-0.35,2.56-0.52c0-3.64,0-7.28,0-10.92c-1.63-2.67-3.27-5.35-4.91-8.02c0-0.01-0.01-0.01-0.01-0.01
		c0,0,0-0.01-0.01-0.01c-0.52-0.84-1.47-1.25-2.46-1.28c-2.53-0.08-4.85,2.08-4.85,4.2C152.79,293.4,152.88,293.78,153.04,294.11z"
		/>
	<g>
		<path class="st8" d="M153.04,294.11c-0.03-0.03-0.05-0.05-0.07-0.06c0.02,0.03,0.08,0.1,0.16,0.24
			C153.1,294.23,153.07,294.18,153.04,294.11z"/>
	</g>
	<path class="st6" d="M153.15,294.31c-0.01-0.01-0.01-0.02-0.01-0.02c-0.08-0.13-0.14-0.21-0.16-0.24c0.01,0.01,0.04,0.03,0.07,0.06
		c-0.16-0.33-0.25-0.72-0.25-1.14c0-2.12,2.32-4.28,4.85-4.2c0.99,0.03,1.95,0.44,2.46,1.28c-0.87-1.45-2.05-2.7-3.65-3.23
		c-1.66-0.55-3.5-0.19-4.85,1.08c-1.77,1.66-2.15,4.37-2.14,6.81c0,0,0,0,0,0.01c0,0.28,0.09,0.54,0.23,0.78
		c0.23,0.38,0.57,0.68,1,0.9c1.25,0.63,2.57,0.83,4.07,0.55c-0.54-0.88-1.08-1.76-1.62-2.64
		C153.15,294.32,153.15,294.32,153.15,294.31z"/>
	<path class="st7" d="M149.46,299.97c-0.03,1.61,0.91,3.07,2.34,3.75c2.22,1.05,4.86-0.09,5.62-2.43c-0.06-0.09-0.11-0.19-0.17-0.28
		c-0.71,0.89-1.97,1.25-3.15,1.35c-0.95,0.08-1.85-0.01-2.72-0.33c-0.66-0.24-1.32-0.62-1.68-1.21c-0.15-0.24-0.23-0.5-0.23-0.78v0
		C149.46,300.02,149.46,299.99,149.46,299.97z"/>
	<path class="st5" d="M166.73,316.53c-0.23-0.36-0.26-0.91-0.24-1.32c0.03-0.91,0.31-1.96,0.63-2.82c0.05-0.14,0.1-0.26,0.14-0.37
		c-0.38-0.33-0.75-0.69-1.09-1.04c-0.29-0.3-1.13-1.23-1.15-1.72c0-0.02,0-0.04,0-0.06c0-0.06,0-0.12,0-0.18
		c-0.85,0.17-1.71,0.35-2.56,0.52c-9.69,1.98-19.39,3.95-29.08,5.93c0.27-0.05,0.5,0.22,0.68,0.47c0.66,0.94,1.49,3.51,1.49,5.74
		c0,0.27-0.02,0.55-0.06,0.81c-0.03,0.21-0.06,0.41-0.16,0.62c-0.07,0.15-0.18,0.31-0.33,0.34c10.66-2.17,21.32-4.34,31.98-6.52
		C166.9,316.81,166.82,316.67,166.73,316.53z"/>
	<g>
		<path class="st8" d="M165.02,309.21c0,0.02,0,0.04,0,0.06C165.02,309.25,165.02,309.23,165.02,309.21z"/>
	</g>
	<path class="st6" d="M165.03,287.35v21.91c0.03,0.49,0.87,1.42,1.15,1.72c0.34,0.35,0.71,0.71,1.09,1.04
		c0.41-0.13,0.82-0.26,1.26-0.39c0.97-0.27,2.96-0.75,4-0.7c0.21-0.51,0.38-1.13,0.38-1.69v-17.8c-0.95-0.25-1.85-0.61-2.64-1.06
		l-1.51-0.88h-0.02L165.03,287.35z"/>
	<path class="st5" d="M177.47,333.35c0-2.12,2.32-4.28,4.85-4.2c0.99,0.03,1.94,0.44,2.46,1.28c-3.1-5.07-6.2-10.14-9.3-15.21
		c-0.58-0.94-1.15-1.88-1.73-2.82c-0.03-0.05-0.06-0.09-0.08-0.14c-0.3-0.49-0.71-0.94-1.15-1.32c-1.04-0.05-3.03,0.43-4,0.7
		c-0.45,0.13-0.86,0.25-1.27,0.39c-0.04,0.1-0.09,0.22-0.14,0.37c-0.32,0.86-0.6,1.91-0.63,2.82c-0.02,0.4,0.02,0.96,0.24,1.32
		c0.08,0.14,0.17,0.28,0.25,0.41h0c3.61,5.9,7.21,11.8,10.82,17.7C177.59,334.28,177.47,333.84,177.47,333.35z"/>
	<path class="st5" d="M172.91,309.25c0,0.56-0.17,1.18-0.38,1.69c0.44,0.37,0.84,0.82,1.15,1.32c0.03,0.05,0.06,0.09,0.08,0.14
		c0.58,0.94,1.15,1.88,1.73,2.82c9.81-2,19.63-4,29.44-6h0c0.15-0.03,0.26-0.19,0.33-0.34c0.1-0.21,0.13-0.41,0.16-0.62
		c0.03-0.27,0.05-0.54,0.05-0.81c0-2.23-0.82-4.81-1.48-5.74c-0.18-0.25-0.41-0.53-0.68-0.47h0c-10.13,2.06-20.26,4.13-30.39,6.19
		C172.91,308.03,172.91,308.64,172.91,309.25z"/>
	<path class="st6" d="M177.86,334.74c1.08,1.78,2.48,6.64,2.47,10.48v0.01c0,0.25,0.07,0.52,0.23,0.78c0.4,0.66,1.17,1.06,1.93,1.3
		c1.42,0.44,2.99,0.33,4.24-0.16c0.49-0.19,0.96-0.45,1.3-0.85c0.26-0.3,0.45-0.68,0.45-1.07c0,0,0,0,0-0.01
		c0.02-4.48-1.44-11.14-3.69-14.77c0-0.01-0.01-0.01-0.01-0.01c-0.52-0.84-1.47-1.25-2.46-1.28c-2.53-0.08-4.85,2.08-4.85,4.2
		c0,0.49,0.12,0.93,0.34,1.3c0.01,0.01,0.02,0.03,0.03,0.04c0,0.01,0.01,0.01,0.01,0.01C177.85,334.71,177.86,334.73,177.86,334.74z
		"/>
	<path class="st5" d="M180.56,346c-0.16-0.26-0.23-0.53-0.23-0.78c0,1.77,0,3.54,0,5.31c0,0.03,0,0.06,0,0.09
		c0.02,0.22,0.09,0.46,0.23,0.69c0.4,0.66,1.17,1.06,1.93,1.3c1.42,0.44,2.99,0.33,4.24-0.15c0.49-0.19,0.96-0.45,1.3-0.85
		c0.26-0.3,0.45-0.68,0.45-1.07c0-0.02,0-0.04,0-0.06c0-1.75,0-3.5,0-5.25c0,0.38-0.19,0.77-0.45,1.07c-0.34,0.4-0.81,0.66-1.3,0.85
		c-1.25,0.49-2.82,0.59-4.24,0.16C181.73,347.06,180.97,346.66,180.56,346z"/>
	<path class="st7" d="M180.33,350.62c0.03,1.55,0.95,2.94,2.33,3.59c2.77,1.31,5.87-0.8,5.81-3.74c0,0.02,0,0.04,0,0.06
		c0,0.39-0.19,0.77-0.45,1.07c-0.34,0.4-0.81,0.66-1.3,0.85c-1.25,0.49-2.82,0.59-4.24,0.15c-0.77-0.24-1.53-0.63-1.93-1.3
		C180.42,351.08,180.35,350.85,180.33,350.62z"/>
	<path class="st6" d="M203.98,301.7c0.66,0.94,1.48,3.51,1.48,5.74c0,0.27-0.02,0.55-0.05,0.81c-0.03,0.21-0.06,0.41-0.16,0.62
		c-0.07,0.16-0.18,0.31-0.33,0.34c1.72-0.36,3.89,0.02,3.87,1.79v0.02c0,0.53,0.35,1.03,0.78,1.38c0.43,0.36,0.92,0.57,1.44,0.71
		c1.05,0.3,2.16,0.34,3.22,0.12c0.87-0.18,1.93-0.61,2.42-1.33c0.17-0.26,0.3-0.57,0.3-0.87c0-0.01,0-0.01,0-0.01
		c0.03-2.58-0.99-5.19-2.97-7.1c-2.8-2.71-6.93-3.49-10.69-2.7C203.57,301.17,203.81,301.45,203.98,301.7z"/>
	<path class="st5" d="M216.95,316.34c0-1.76,0-3.53,0-5.3c0,0.31-0.12,0.61-0.3,0.87c-0.5,0.72-1.56,1.16-2.42,1.33
		c-1.06,0.22-2.17,0.17-3.22-0.12c-0.51-0.15-1.01-0.35-1.44-0.71c-0.42-0.35-0.78-0.86-0.78-1.38c0,1.77,0,3.54,0,5.31
		c0,0,0,0.01,0,0.01c0,0.53,0.36,1.03,0.78,1.38c0.43,0.36,0.92,0.57,1.44,0.71c1.05,0.3,2.16,0.34,3.22,0.12
		c0.87-0.18,1.93-0.61,2.42-1.34c0.17-0.25,0.29-0.56,0.3-0.87C216.95,316.35,216.95,316.34,216.95,316.34z"/>
	<path class="st7" d="M209.58,317.72c-0.42-0.35-0.77-0.85-0.78-1.38c0,1.58,0.92,3.01,2.34,3.68c2.77,1.31,5.82-0.79,5.82-3.67
		c-0.01,0.31-0.12,0.61-0.3,0.87c-0.5,0.73-1.56,1.16-2.42,1.34c-1.06,0.22-2.17,0.17-3.22-0.12
		C210.5,318.28,210,318.08,209.58,317.72z"/>
</g>
<g>
	<g>
		<path class="st9" d="M145.3,261.62L145.3,261.62c-0.15-0.22-0.3-0.45-0.45-0.67c0.63-0.88,1.37-1.68,2.19-2.42
			c5.79-5.18,15.72-6.94,20.75-6.94c1.19,0,2.11,0.17,2.92,0.39c5.41-1.1,11.71,3.87,16.13,5.89c8.13,3.73,12.22,3.99,15.77,7.39
			c3.57-0.04,7.5-1.98,10.47-2.59c-2.68,3.37-4.1,7.51-4.71,11.76c1.82,3.98,3.93,9.37,6.65,16.81c1.48,4.06,4.84,10.32,5.38,15.66
			c0.34,1.09,0.64,2.27,0.9,3.6c0,0.09,0.75,1.35,0.89,1.57c1.12,0.59,2.2,0.65,3.44,0.56c0.35-0.21,0.68-0.45,0.98-0.71
			c-0.64-0.61-1.24-1.29-1.79-2.04c0.11-0.31,0.21-0.62,0.3-0.94c-0.02-0.02-0.03-0.04-0.05-0.06c-0.05,0.01-0.09,0.02-0.14,0.04
			c1.03-1.33,1.7-2.76,2.5-4.14c1.24-1.37,2.69-2.53,4.37-2.53c0.17,0,0.32,0.01,0.47,0.02c-0.7-1.03-1.82-1.88-2.19-3.12
			c-2.72-9.04-6.92-38.17-14.25-45.4c-4.5-7.75-20.22-13.81-30.23-16.9c0,1.55-0.11,2.1-1.17,3.05c3.87,0.42,8.93,1.64,8.93,3.95
			c0,0.11-0.01,0.21-0.04,0.32v0c2.35,1.27,4.61,2.89,6.21,4.7c0.2,0.78,0.06,1.48-0.51,2.03c-2.56,0.16-3.51-3.27-8.86-4.75
			c2.99,1.86,6.64,4.52,7.23,6.36c-0.27,0.65-1.04,0.9-1.87,0.95c-1.42-0.98-2.43-3.08-9.42-5.35c3.09,2.05,7.87,4.69,7.73,7.14
			c-0.44,0.49-1.25,0.76-2.05,0.85c-0.88-0.93-1.28-2.82-8.84-6.45c0.32,0.41,0.65,0.81,0.99,1.15c1.54,1.5,5.1,3.41,5.66,5.55
			c-0.25,0.69-0.79,0.95-1.53,0.95c-1.85-1.27-3.9-4.26-9.89-6.64c-2.17-0.86-3.41-0.37-4.7-3.08c-4.92,1.45-12.57,3.06-18.9,3.06
			c-5.62,0-8.25-1-10.5-3.35C142.84,251.61,142.27,258.3,145.3,261.62z"/>
		<path class="st10" d="M130.13,255.56c-0.49,0.62-0.84,1.4-0.86,2.19l2.3,3.58v0.01l6.83,10.64l26.63,15.37v1.04l3.71,1.11h0.02
			l5.79,1.72L206,276.95l-2.69-4.73l-23.72-41.64l-21.42-37.61l-4.71-8.27l-16.81,12.49c-4.85,3.61-8.37,8.56-10.22,14.11l8.05-4.65
			v16.62c0,0,0,0,0,0.01c-0.06,7.35,4.16,16.88,11.11,22.88l-13.6,7.85C131.29,254.42,130.64,254.91,130.13,255.56z"/>
		<path class="st10" d="M40.61,334.35c1.43,0.88,2.87,1.74,4.3,2.61c11.51,6.95,30.16,14.42,45.47,17.23
			c-7.98,4.62-17.68,10.22-29.49,17.05l62.49,36.09h3.29c0.99-0.57,6.5-3.73,9.69-5.56l46.68-0.9l-5-2.58l0.21-1.76
			c-24.14,0-31.99-0.08-31.99-0.26c0-0.36,31.56-18.11,31.99-18.36l0.01-6.72c0.4,0.01,0.86,0.09,1.55,0.23
			c2.97,0.59,3.71,0.77,8.03-1.56v2.15c0.04-0.03,83.7-48.33,83.76-48.37l45.77-0.34l-4.81-2.9l0.01-2.46l-40.99,0.47
			c-0.7-0.4-17.07-9.79-27.54-15.78c-3.86-13.28-11.22-38.61-11.4-39.26c-0.79-0.44-1.66-0.94-3.68-2.08
			c-0.17,1.78-0.35,2.35,0.53,2.59c0.73,0.18,0.75,0.44,0.75,6.5c0,6.14-0.03,6.31-0.74,6.07c-0.65-0.21-0.73-0.07-0.73,1.42
			c0,1.34,0.14,1.7,0.73,1.9c0.94,0.29,1,1.65,0.08,1.65c-0.79,0-2.59,0.98-3.42,1.4c-2.41-1.36-3.64-2.31-3.64-0.65
			c0,0.39-0.16,0.72-0.36,0.72c-0.21,0-0.36-0.51-0.36-1.12c0-1.51-0.61-1.29-6.02-4.81c-2.13-1.38-2.73-1.61-3.26-1.29
			c-0.35,0.22-0.65,0.75-0.65,1.17c0,1.81-3.99,6.36-6.87,7.83c-2.56,1.3-5.94,1.99-8.62,1.76c-1.83-0.17-2.54-0.1-2.86,0.29
			c-0.34,0.42-0.01,0.57,1.92,0.91c3.43,0.6,6.15,0.51,8.76-0.32c2.76-0.86,2.52-0.82,2.52-0.38c0,0.51-4.42,3.19-4.42,3.72
			c0,0.21-0.95,0.82-2.11,1.37c-1.95,0.92-2.47,0.99-6.89,0.99c-3.64,0-5.23-0.16-6.67-0.65c-1.85-0.65-1.93-1.42-3.25-0.64
			c-0.71,0.43-1.55,1.19-1.55,1.33c0.01,0.14,1.61,1.61,3.24,2.72c3.04,2.09,7.67,6.62,7.67,7.5c0,1.77-8.39,1.6-17.62-0.35
			c-2.31-0.48-4.25-0.83-4.3-0.78c-0.05,0.05-0.01,0.44,0.1,0.86c0.17,0.65,0.81,0.88,4.12,1.55c6.18,1.21,10.58,1.63,14.67,1.38
			c2.08-0.12,3.77-0.1,3.77,0.05c-0.04,1.38-1.92,1.92-6.68,1.92c-5.73,0-10.88-1.15-13.47-2.25c-2.04-0.87-1.94-0.99-1.77-0.43
			c1.53,5.28,1.17,5.76,1.82,5.97c0.79,0.26,0.84,1.03,0.13,1.26l3.82,13.15l-6.12-3.54c-2.47-8.52-4.83-16.52-5.79-19.86
			c-1.3-0.74-27.29-15.6-28.32-16.42c-1-0.78-0.68-1.08,1.42-1.31c2-0.22-3.37,2.5-1.38,3.6c2.54,1.44,2.48,1.4,2.21,1.66
			c-0.12,0.12-0.9-0.14-1.74-0.59c-0.85-0.43-1.61-0.72-1.69-0.64c-0.33,0.32,0.81,2.5,1.4,2.69c0.79,0.25,0.87,0.88,0.1,0.88
			c-0.43,0-0.49,0.25-0.29,1.01c0.77,2.78,0.05,11.49-0.94,11.49c-0.14,0-0.65-1.38-1.14-3.03c-5.5-18.59-106.14,18.45-105.38,20.41
			c0.42,1.07,0.47,1.57,0.18,1.66c-0.72,0.26-4.08,3.16-4.86,4.21c-0.65,0.85-0.7,1.13-0.32,1.74c0.26,0.39,0.45,0.79,0.45,0.9
			C25.16,330.77,40.61,334.35,40.61,334.35z M139.88,358.27v0.54c-1.18-0.18-4.3-1.29-5.22-1.29c-2.33,0,2.26-2.2,2.51-2.2
			C137.46,355.32,139.2,357.28,139.88,358.27z M146.89,297c-0.62,0.57-0.82,0.55-3.12-0.4c-1.34-0.56-2.44-1.13-2.44-1.29
			c0-0.4,4.04-0.29,5.24,0.16C147.74,295.89,147.81,296.16,146.89,297z M162.93,308.09c-0.32,0.33-1.77-0.16-1.77-0.58
			c0-0.2,0.21-0.34,0.47-0.34C162.31,307.18,163.2,307.82,162.93,308.09z M168.62,320.54l-0.87-0.5
			C168.07,318.37,168.43,318.73,168.62,320.54z M178.35,313.41c0.81,0.01,8.18,4.3,8.18,4.77c0,0.47,6.11,4.06,6.9,4.06
			c0.19,0,0.53,0.1,0.93,0.25c-1.23,0.71-2.37,1.36-3.4,1.95c-0.35,0-0.59,0-0.68,0c-0.69-0.39-15.53-8.82-15.53-9.4
			C174.76,314.39,177.68,313.41,178.35,313.41z M196.91,318.11c0.22-0.65,4.67-2.86,6.24-3.11c0.95-0.15,1.78,0,3.1,0.6
			c-2.5,1.45-4.93,2.86-7.2,4.17c-0.24-0.21-0.58-0.43-0.97-0.62C197.36,318.82,196.83,318.35,196.91,318.11z M226.96,285.93
			c0.01,2.13-1.16-0.46-5.04,2.98c-0.61,0.55-0.83,1.14-0.83,2.29c0,0.85-0.33,2.26-0.73,3.15c-1.45,3.19-0.67,7.76,1.91,11.96
			c-1.25,0.73-2.55,1.49-3.88,2.26c-0.62-0.09-1.23-0.15-1.77-0.19c-2.99-0.19-3.33-0.14-5.15,0.81c-4.24,2.21-3.51,3.58-8.93,4.55
			c-1.22,0.22-3.51,1.05-5.11,1.86c-2.73,1.38-2.95,1.43-3.93,0.92c-0.57-0.29-1.3-0.53-1.61-0.53c-0.58,0-7.06-3.55-7.36-4.03
			c-0.09-0.16,1.77-0.36,4.14-0.48c6.41-0.31,10.35-1.77,11.66-4.32c0.3-0.59,0.55-1.4,0.55-1.82c0-2.43-4.77-7.79-4.77-8.26
			c0-0.12,0.78-0.21,1.74-0.21c8.69-0.03,17.59-7.42,18.37-14.9c0.1-1.09,0.3-1.98,0.43-1.98c0.12,0.03,1.55,0.85,3.16,1.83
			c1.63,0.98,3.38,1.79,3.93,1.79C225.37,283.64,226.96,284.77,226.96,285.93z M241.68,301.27c-2.48-1.42-4.42-2.53-5.44-3.12
			c-0.01,0-1.25,0.73-3.34,1.95c-0.8-1.41-1.17-1.76-1.87-2.69c-0.05,1.9-0.03,2.55-0.08,3.83c-0.44,0.26-0.91,0.53-1.4,0.82
			c-0.03-1.71-0.01-4.13-0.01-7.37c-5.9-3.34-5.88-3.22-5.14-3.71c0.69-0.46,4.88-0.36,5.88-0.38c0-2.78-0.23-4.12,1.78-2.7
			c0.47,0.32,0.99,0.44,1.14,0.27c0.44-0.48,1.04-2.61,1.51-5.37c0.23-1.37,0.52-2.48,0.65-2.48
			C235.64,280.33,241.61,301.03,241.68,301.27z M178.29,362.93l0.02-12.78c0.18,0.03,0.36-0.07,0.55-0.26
			c0.08-0.08-0.13-1.07-0.55-2.71l0.03-18.23l0.56,1.94c0.47,0,4.32-2.32,5.27-3.2c0.73-0.66,0.87-0.66,2.03-0.16
			c0.18,0.08,0.76,0.23,1.65,0.43v29.34C184.78,359.07,181.04,361.27,178.29,362.93z M130.42,370.49l-0.01-1.77
			c2.55,0.49,5.63,1.08,9.37,1.78l-4.7,2.74L130.42,370.49z"/>
		<path class="st11" d="M170.71,251.98c0.95,0.26,1.73,0.6,2.58,0.85c2.61,2.05,5.29,4.66,7.84,7.31
			c6.93,1.59,13.38,4.35,18.99,8.56c0.56,0.8,1.15,1.58,1.84,2.2c0.73,0.65,2.14,0.79,2.61,1.61c0.49,0.15,0.97,0.36,1.44,0.59
			c0.37,10.5,2.35,13.9,5.69,18.55c5.52,14.23,2.96,17.12,3.77,19.68c2.03,0.9,3.94,0.24,5.73-1.06c0.04,0.08,0.08,0.16,0.12,0.24
			c-0.26-1.33-0.56-2.51-0.9-3.6c-0.54-5.33-3.89-11.6-5.38-15.66c-2.72-7.44-4.83-12.83-6.65-16.81c0.61-4.25,2.03-8.39,4.71-11.76
			c-2.97,0.61-6.9,2.55-10.47,2.59c-3.55-3.41-7.64-3.66-15.77-7.39C182.43,255.85,176.12,250.88,170.71,251.98z"/>
		<path class="st9" d="M167.79,251.59c-5.03,0-14.96,1.76-20.75,6.94c5.8,2.01,19.98,10.02,27.53,22.52
			c3.59,3.05,7.63,4.98,13.11,5.07c-3.08,2.23-5.25,5.34-6.58,8.84c2.31,8.56,2.41,17.85,3.72,26.56
			c1.74,11.54,3.2,12.87,4.04,14.48c2.33-1.91,5.19-2.72,8.05-3.69c1,0.01,2,0.02,3,0.06c0.23,0.43,0.44,0.86,0.63,1.3
			c0.3-0.43,0.65-0.87,0.65-1.25c0-1.7,1.25,9.32-6.02-36.58c0.21-4.61,0.95-15.56-0.46-19.6c0.02,0.01,0.03,0.01,0.05,0.02
			c0.09-1.6-2.41-4.24-3.84-6.19c-0.99-0.76-1.95-1.55-2.79-2.44c-4.31-4.57-9.67-10.74-14.84-14.8
			C171.73,252.38,170.38,251.59,167.79,251.59z"/>
		<path class="st11" d="M184.62,336.03c0.46,0.45,1.77,1.04,2.82,1.32h0c0-0.03,0-0.07-0.01-0.1c0.03,0.01,0.06,0.03,0.1,0.04
			c0.42-0.48,0.87-0.91,1.33-1.29c-0.84-1.61-2.3-2.94-4.04-14.48c-1.32-8.71-1.41-18-3.72-26.56c1.33-3.51,3.5-6.62,6.58-8.84
			c-5.48-0.09-9.52-2.02-13.11-5.07c-7.56-12.5-21.73-20.51-27.53-22.52c-0.82,0.74-1.56,1.54-2.19,2.42
			c7.41,11.33,22.19,17.44,32.08,27.42c0,8.52,0.45,18.47,2.88,26.58c1.71,10.29,4.36,20.9,4.36,20.91
			C184.63,335.94,184.46,335.88,184.62,336.03z"/>
		<path class="st12" d="M138.08,206.53c-1.12,5.72-0.45,11.81,0.45,17.55c1.79-1.28,3.75-2.16,5.76-2.58
			c0.18-9.72,0.69-18.14,2.19-23.56c1.27-1.69,2.31-3.08,3.21-4.24c-2.42-0.64-5.23-0.34-7.28,1.18
			C140.07,198.29,138.02,202.39,138.08,206.53z"/>
		<path class="st13" d="M201.79,241.28l-42.43,24.23c0,0-10.19-8.23-14.5-4.57c0,0-3.36-3.14-0.79-13.66
			c2.58-10.53,41.53-10.43,41.53-10.43L201.79,241.28z"/>
		<path class="st3" d="M138.53,224.08c0.19,1.23,0.39,2.43,0.58,3.58c1.26-1.22,3.12-1.99,5.13-2.37c0.01-1.28,0.03-2.54,0.05-3.78
			C142.28,221.93,140.32,222.81,138.53,224.08z"/>
		<path class="st14" d="M139.11,227.67c1.23,7.51,0.88,7.41,0.88,10.67c0,1.71,0.18,3.2,1.22,4.82c-0.22-0.2-0.43-0.41-0.65-0.61
			c1.3,1.97,2.35,3.53,3.5,4.74v0c2.24,2.35,4.88,3.35,10.5,3.35c6.33,0,13.97-1.61,18.9-3.06c-0.21-0.43-0.41-0.95-0.63-1.56
			c-7.08,2.05-19.54,2.59-26.07,0.44c-0.01-0.02-0.02-0.04-0.03-0.06c-1.2-2.09-2.53-3.89-2.53-9.89c0-3.83,0-7.59,0.04-11.22
			C142.23,225.67,140.37,226.44,139.11,227.67z"/>
		<path class="st12" d="M142.41,194.89c2.04-1.51,4.86-1.82,7.28-1.18c3.33-4.3,4.63-5.44,7.85-7.22c0.08,0-0.65-0.97-1.69-4.31
			C151.35,184.74,146.05,189.6,142.41,194.89z"/>
		<path class="st4" d="M144.29,221.51c-0.02,1.24-0.04,2.5-0.05,3.78c1.02-0.19,2.08-0.29,3.11-0.29c3.1,0,4.84,0.57,6.46,1.69
			c0.28-1.03,0.46-1.72,0.81-2.96C151.51,221.49,147.87,220.75,144.29,221.51z"/>
		<path class="st15" d="M146.47,197.95c-1.49,5.42-2.01,13.84-2.19,23.56c3.58-0.75,7.22-0.02,10.33,2.23
			c1.83-6.48,4.12-13.81,4.12-18.54c0-5.07-4.16-10.19-9.05-11.49C148.79,194.87,147.74,196.26,146.47,197.95z"/>
		<path class="st16" d="M231.8,302.25c-1.68,0-3.13,1.16-4.37,2.53c-0.8,1.38-1.46,2.81-2.5,4.14c0.04-0.01,0.09-0.02,0.14-0.04
			c0.02,0.02,0.03,0.04,0.05,0.06c-0.08,0.32-0.19,0.63-0.3,0.94c0.55,0.75,1.14,1.43,1.79,2.04c2.19-1.91,3.33-5.07,8.53-6.2v0
			C234.78,304.44,235.13,302.25,231.8,302.25z"/>
		<path class="st17" d="M150.93,164.6c0,0.98,0.16,2.26,0.53,3.41c-0.26,4.43,1.67,7.94,4.57,9.84c1.05,2.37,2.52,4.53,4.87,5.66
			c0.75-0.55,1.86-1.65,2.5-2.52c0.99-0.01,2.01-0.17,2.89-0.48c-0.1-2.37-0.62-5.25-1.6-7.8c0,0,0,0,0,0
			c-1.72-2.8-2.68-5.89-4.53-8.63c-0.91-1.36-2.38-2.08-2.89-3.74c-0.48-1.56-0.43-3.25-0.45-4.94
			C152.84,156.79,150.93,159.97,150.93,164.6z"/>
		
			<linearGradient id="SVGID_1_" gradientUnits="userSpaceOnUse" x1="71.0113" y1="239.7999" x2="269.8878" y2="287.1981" gradientTransform="matrix(-1 0 0 1 392.0101 0)">
			<stop  offset="0" style="stop-color:#A895E1"/>
			<stop  offset="0.4166" style="stop-color:#91BED6"/>
			<stop  offset="1" style="stop-color:#F7A5C4"/>
		</linearGradient>
		<path class="st18" d="M331.79,237.46l-148.73,85.87l-62.37-36.01l148.73-85.87L331.79,237.46z"/>
		<polygon class="st19" points="189.27,247.7 196.97,254.25 188.99,258.92 177.93,254.32 		"/>
		<path class="st20" d="M203.8,264.76l-3.93,2.27l2.65,1.53l3.93-2.27L203.8,264.76z M207.06,266.64l-3.93,2.27l2.65,1.53l3.93-2.27
			L207.06,266.64z M208.27,262.18l-3.93,2.27l2.65,1.53l3.93-2.27L208.27,262.18z M210.32,268.52l-3.93,2.27l2.65,1.53l3.93-2.27
			L210.32,268.52z M212.74,259.6l-3.93,2.27l2.65,1.53l3.93-2.27L212.74,259.6z M211.53,264.06l-3.93,2.27l2.65,1.53l3.93-2.27
			L211.53,264.06z M209.65,272.67l2.65,1.53l3.93-2.27l-2.65-1.53L209.65,272.67z M214.79,265.94l-3.93,2.27l2.65,1.53l3.93-2.27
			L214.79,265.94z M218.22,262.13l-0.08,0.58l-2.14-1.24l-3.93,2.27l2.65,1.53l3.33-1.93l-0.11,0.77l-2.62,1.51l2.23,1.29l-0.18,1.3
			l-3.26,1.88l2.65,1.53l0.15-0.08l-0.11,0.77l-3.9,2.25l2.65,1.53l0.78-0.45l-0.36,2.61l-0.17,0.1l-30.27-17.48l16.24-9.37
			c0.69,0.4,0.54,0.31,0.75,0.43c11.8-6.82,10.19-5.89,11.12-6.42l-0.75-0.44l16.24-9.37l5.77,3.33l-14.45,8.34l-3.66-2.11
			l-14.69,8.48l8.48,4.9l8.84-5.1l-0.33,2.39l-1.33,0.77l1.14,0.66l-0.08,0.58l-1.6-0.92l-3.93,2.27l2.65,1.53l2.69-1.56l-0.11,0.77
			l-1.98,1.14L218.22,262.13z"/>
		<path class="st21" d="M151.53,240.47L151.53,240.47c0.06-0.01,0.13-0.02,0.19-0.03c2.05-4.43,2.3-8.83,2.3-13.6
			c-1.6-1.15-3.3-1.84-6.68-1.84c-1.03,0-2.09,0.09-3.11,0.29c-0.04,3.62-0.04,7.39-0.04,11.22c0,6.01,1.32,7.8,2.53,9.89
			C147.66,244.03,149.77,242.24,151.53,240.47C151.47,240.48,151.46,240.49,151.53,240.47z"/>
		<path class="st21" d="M193.31,244.17c0.03-0.11,0.04-0.22,0.04-0.32c0-2.31-5.07-3.53-8.93-3.95c-2.89-0.32-5.15-0.16-9.16,0.19
			c-4.38-0.31-9.01-0.79-13.46-0.79c-5.56,0-7.67,0.67-10.09,1.17c0-0.01,0.01-0.02,0.01-0.03c-0.06,0.01-0.13,0.02-0.19,0.03
			c-1.76,1.76-3.87,3.55-4.8,5.92c0.01,0.02,0.02,0.04,0.03,0.06c6.44,2.12,18.84,1.66,26.07-0.44c-0.04-0.1-0.07-0.21-0.11-0.32
			c1.74,0.12,4.36-0.04,5.06,0.91c0.64,0.05,1.14,0.3,1.75,0.42c0.03,0.08,0.06,0.16,0.09,0.24c0.01,0,0.21,0.03,0.56,0.07
			c0.05,0.09,0.12,0.17,0.17,0.27c1.22,0.37,2.37,1.43,3.43,2.46c6.78,3.37,7.22,5.21,7.99,6.03c0.81-0.1,1.61-0.37,2.05-0.85
			c0-0.06,0.01-0.11,0.01-0.17c0-2.34-4.73-4.98-7.74-6.97c6.99,2.27,8,4.37,9.42,5.35c0.82-0.05,1.6-0.29,1.87-0.95
			c-0.59-1.84-4.24-4.5-7.23-6.36c5.38,1.49,6.28,4.92,8.86,4.75c0.56-0.55,0.71-1.25,0.51-2.03
			C197.92,247.07,195.66,245.44,193.31,244.17L193.31,244.17z"/>
		<path class="st12" d="M151.72,240.45c0,0.01-0.01,0.02-0.01,0.03c3.05-0.63,5.37-1.35,12.33-1.13
			c-2.65-6.75-4.01-12.07-4.01-19.38c0-5.18,0.33-10.85-1.33-15.55c0.42,4.97-3.15,15.82-4.68,21.46
			C154.03,231.05,153.94,235.67,151.72,240.45z"/>
		<path class="st22" d="M158.69,153.45c3.01,8.25,15.87,21,24.65,18.52c-1.25,2.43-3.66,3.79-6.21,4.83
			c-4.52,0.12-8.26-0.81-12.47-4.17c0.01,0.02,0.02,0.05,0.03,0.07c-1.72-2.8-2.68-5.89-4.53-8.63c-0.91-1.36-2.38-2.08-2.89-3.74
			c-0.48-1.56-0.43-3.25-0.45-4.94c0.1-0.04,0.2-0.07,0.3-0.1C157.27,154.82,157.8,154.13,158.69,153.45z M179.01,175.23
			C178.99,175.21,178.98,175.2,179.01,175.23L179.01,175.23z"/>
		<path class="st23" d="M158.69,153.45c3.03,8.3,15.9,21,24.65,18.52c0.78-1.5,1.03-3.24,1.05-4.94
			c-2.24-2.98-1.09-15.81-18.52-15.81C162.58,151.22,160.15,152.32,158.69,153.45z"/>
		<path class="st14" d="M159.21,182.41L159.21,182.41c0.98,3.84,3.04,6.96,6.25,8.47c0.81-1.41,1.45-3.01,1.81-4.59
			c-1.74-1.23-3.28-2.75-4.55-4.51c-0.62,0.69-1.35,1.36-1.84,1.72C160.27,183.2,159.72,182.84,159.21,182.41z"/>
		<path class="st14" d="M163.39,180.99c-0.19,0.26-0.42,0.53-0.66,0.8c2.98,4.16,7.46,6.88,12.34,7.81c0.02-0.4,0.02-0.61,0.02-0.83
			c0.01,0.08,0-0.11,0,0.84c1.14,0.22,2.31,0.34,3.5,0.37c-2.22-2.19-6.29-2.49-6.55-6.22c-5.67-4.69-3.64-6.65-4.25-9.02
			c-1.1-0.6-2.14-1.31-3.13-2.1c0.01,0.02,0.02,0.05,0.03,0.07c0,0,0,0,0,0c0.98,2.55,1.5,5.44,1.6,7.8
			C165.4,180.82,164.37,180.98,163.39,180.99z"/>
		<path class="st21" d="M167.27,186.29c-0.36,1.58-1,3.18-1.81,4.59c2.08,0.99,4.4,1.18,6.71,0.87c0.18-0.95,0.45-1.94,0.94-2.63
			C171.02,188.5,169.04,187.54,167.27,186.29z"/>
		<path class="st24" d="M159.21,182.41L159.21,182.41c-0.46-0.38-0.87-0.82-1.25-1.28c-0.68,0.29-1.39,0.64-2.12,1.06
			c2.26,7.27,6.51,12.8,14.19,12.8c3.27,0,4.85-2.1,5.05-5.39c-0.66-0.13-1.31-0.29-1.95-0.48c-0.5,0.69-0.77,1.68-0.94,2.63
			C165.43,192.68,160.88,188.93,159.21,182.41z"/>
		<path class="st24" d="M170.03,194.99c-0.25,0-0.5-0.01-0.75-0.02c2.51,5.76,2.51,12.41,2.98,18.53c0.08-0.07,0.17-0.13,0.25-0.2
			c0.19-4.99,1.76-6.78,1.76-14.38c0-2.11-0.07-4.14,0.03-6.27C173.42,194.31,171.85,194.99,170.03,194.99z"/>
		<path class="st25" d="M171.01,178.57c0.39,0.54,0.77,1.03,1.2,1.5c0.73,0.04,1.5,0.04,2.24-0.01c0.62-0.7,1.23-1.45,1.62-2.24
			C174.73,178.22,172.37,178.48,171.01,178.57z"/>
		<path class="st14" d="M172.72,245.69c1.55,4.8,2.95,3.97,5.44,4.96c5.98,2.38,8.04,5.38,9.89,6.64c0.73,0,1.28-0.26,1.53-0.95
			c-0.55-2.15-4.11-4.05-5.66-5.55c-0.35-0.34-0.67-0.75-0.99-1.15c0.3,0.14,0.58,0.28,0.85,0.42c-1.06-1.03-2.21-2.1-3.43-2.46
			c-0.04-0.1-0.11-0.18-0.17-0.27c-0.19-0.02-0.37-0.05-0.56-0.07c0.01,0.03,0.02,0.05,0.03,0.08c-0.06-0.16-0.11-0.28-0.12-0.31
			c-0.61-0.12-1.12-0.37-1.75-0.42C177.09,245.65,174.46,245.82,172.72,245.69z"/>
		<path class="st26" d="M175.95,222.1c0.1-0.06,0.2-0.11,0.3-0.17c-0.02,0.04-0.04,0.09-0.05,0.14c2.93-2.18,5.83-3.56,9.1-4.7h0
			c0.24-1.77,0.28-2.78,1.9-7.28c-2.28,2.7-5.26,4.85-7.89,7.51C177.97,218.95,177.5,221.04,175.95,222.1z"/>
		<path class="st25" d="M176.9,186.27c-0.06,0.06-0.11,0.11-0.16,0.17c1.86,0.92,4.48,0.51,5.81-1.11c0,0.04,0,0.07,0,0.11
			c0.43-0.61,0.68-1.21,0.46-1.94C181.46,185.15,179.1,186.37,176.9,186.27z"/>
		<path class="st25" d="M176.9,186.27c2.21,0.1,4.57-1.13,6.11-2.79c-0.03-0.1-0.06-0.19-0.11-0.29c-0.18-0.05-0.14-0.11-0.15,0.02
			C180.19,183.35,178.06,185.11,176.9,186.27z"/>
		<path class="st14" d="M177.91,180.53c-0.39,0.26-0.89,0.59-0.89,1.29c0,0.97,1.4,1.33,2.85,1.33c1.09,0,3.19-0.15,3.19-1.25
			c0-0.23-0.05-0.49-0.15-0.77v0c-0.69-2.09-3.52-5.31-3.52-5.4c-0.46,0.26-0.96,0.5-1.48,0.73c0.76,1.51,2.22,2.41,2.24,4.4
			C179.33,181.56,178.44,181.38,177.91,180.53z"/>
		<path class="st25" d="M179.4,175.73L179.4,175.73c0.24,0.3,0.54,0.68,0.86,1.1c0.44-0.2,0.87-0.43,1.3-0.66
			c0.18-0.84,0.48-1.67,0.63-2.55l0,0C181.44,174.44,180.51,175.12,179.4,175.73z"/>
		<path class="st21" d="M181.56,176.18c-0.43,0.23-0.86,0.46-1.3,0.66c1,1.3,2.24,3.03,2.66,4.3c0.13-2.61,0.02-5.57-0.2-8.16
			c-0.17,0.23-0.35,0.45-0.54,0.66l0,0C182.04,174.51,181.74,175.34,181.56,176.18z"/>
		<path class="st21" d="M182.75,183.21c-2.35,0.12-4.36,1.56-6.02,3.22c1.86,0.92,4.48,0.51,5.81-1.11
			c0.04,0.82-0.07,1.75-0.25,2.55c-0.9,0.93-2.12,1.61-3.34,2.1c-0.12,0-0.25,0-0.37-0.01c-2.22-2.19-6.29-2.49-6.55-6.22
			c-5.67-4.69-3.64-6.65-4.25-9.02c3.16,1.72,6.01,2.16,9.34,2.07c0.27-0.11,0.53-0.22,0.79-0.34c0.76,1.51,2.22,2.41,2.24,4.4
			c-0.82,0.71-1.71,0.52-2.25-0.33c-0.39,0.26-0.89,0.59-0.89,1.29c0,0.97,1.4,1.33,2.85,1.33c0.8,0,2.36-0.09,2.95-0.68
			C182.8,182.71,182.76,183.16,182.75,183.21z M174.45,180.06c0.62-0.7,1.23-1.45,1.62-2.24c-1.34,0.4-3.7,0.66-5.06,0.75
			c0.39,0.54,0.77,1.03,1.2,1.5C172.95,180.11,173.72,180.12,174.45,180.06z"/>
		<path class="st15" d="M185.59,235.72c0-8.66-1.59-6.88-1.59-8.93c0-0.01,0.86-6.32,1.29-9.43h0c-3.27,1.14-6.17,2.52-9.1,4.7
			c0.02-0.05,0.04-0.09,0.05-0.14c-0.1,0.05-0.2,0.11-0.3,0.17c1.56-1.07,2.02-3.15,3.35-4.5c2.63-2.67,5.61-4.81,7.89-7.51
			c1.32-3.68,2.8-7.34,2.8-11.22c0-4.11-1.68-7.63-2.34-11.57c0.78-4.78,0.65-12.75-2.74-16.19c0.09,0.02,0.17,0.03,0.26,0.05v0
			c-0.34-0.27-0.64-0.55-0.84-0.87c-0.13-0.02-0.23-0.04-0.32-0.07c-0.26,1-0.68,1.93-1.28,2.75c0.42,4.97,0.2,8.07,0.2,8.16
			c0.09,0.28,0.15,0.54,0.15,0.77c0,0.23-0.09,0.41-0.24,0.56c-0.02,0.23-0.04,0.45-0.07,0.67c0.04,0.02,0.09,0.04,0.14,0.06
			c0.37,0.84,0.16,1.51-0.36,2.24c0.03,0.63-0.05,1.52-0.25,2.44c-0.9,0.93-2.12,1.61-3.34,2.1c-1.58,0-3.35-0.24-3.89-0.38
			c-0.08,1.26-0.34,2.26-0.76,3.04c0,0.28-0.06,0.74-0.06,2.6c0,1.23,0.03,2.45,0.03,3.68c0,7.61-1.58,9.39-1.76,14.38
			c-0.09,0.07-0.17,0.13-0.25,0.2c-0.48-6.12-0.47-12.77-2.98-18.53c-6.26-0.31-9.75-4.44-11.74-8.47h0
			c-3.22,1.77-4.52,2.91-7.85,7.22c4.66,1.24,8.62,5.92,9.02,10.71c1.66,4.69,1.33,10.31,1.33,15.55c0,7.31,1.35,12.63,4.01,19.38
			c3.74,0.12,7.51,0.49,11.22,0.75c3.82-0.33,6.28-0.51,9.16-0.19C185.72,238.74,185.59,238.16,185.59,235.72z"/>
		<path class="st15" d="M184.9,171.1c2.07,2.09,2.97,5.99,3.12,9.92c4.42,3.02,6.62,8.14,9.61,12.52c3.19-2.12,5.5-5.34,6.44-9.23
			C198.26,178.31,193.18,172.57,184.9,171.1z"/>
		<path class="st27" d="M185.21,341.49c0.1,0.99,0.03,1.8,0.09,2.55c4.74,5.47,5.82,8.12,7.19,10.55c2.41,2.06,4.99,3.93,7.87,5.13
			c4.21,0.25,8.11-0.29,11.61-2.74c0.13-0.87,0.24-1.78,0.31-2.66c-3.08,4.09-10.09,4.2-14.8,2.46
			C192.44,353.61,189.35,346.13,185.21,341.49z"/>
		<path class="st16" d="M184.62,336.03c-0.05,0.89-0.09,1.78-0.11,2.67c0.44,1.1,0.62,2.01,0.7,2.79
			c4.14,4.63,7.23,12.11,12.25,15.31c4.73,1.75,11.72,1.62,14.8-2.46c0.01-0.15,0.02-0.3,0.03-0.45c-0.49-0.98-1.04-1.85-1.72-2.74
			c-3.33-2.47-8.16-0.68-11.25,2.04c-3.53-7.34-11.6-8.83-11.89-15.82C187.18,337.35,185.23,336.63,184.62,336.03z"/>
		<path class="st28" d="M187.44,337.25c0.03,0.01,0.06,0.03,0.1,0.04c2.5-2.86,5.86-3.78,9.38-4.98c1,0.01,2,0.02,3,0.06
			c1.25,2.35,2,4.94,2.36,7.55c2.25,3.7,6.01,5.75,8.26,11.17c0.01,0.02,0.03,0.04,0.04,0.06c-3.33-2.47-8.16-0.68-11.25,2.04
			C195.77,345.78,187.8,344.48,187.44,337.25z M203.31,344.12c-0.31-0.43-0.6-0.85-0.89-1.28c-2.45,0.09-4.81,1.25-6.17,3.32
			c0.29,0.35,0.58,0.69,0.87,1.04C198.23,346.27,201.48,344.19,203.31,344.12z M200.23,338.52c-0.13-0.37-0.25-0.75-0.36-1.16
			c-3.12,0.15-6.47,1.09-7.98,3.91c0.68,0.7,0.89,0.94,0.97,1.03C194.95,339.97,197.18,338.7,200.23,338.52z M200.87,340.1
			c-2.56,0-4.62,1.14-6.44,3.01c0.41,0.48,0.82,1.01,1.34,1.28c1.1-1.79,3.91-2.79,5.84-2.84
			C201.36,341.08,201.11,340.61,200.87,340.1z M205.67,347.38c-0.28-0.4-0.56-0.79-0.84-1.17c-2.24,0.68-4.41,1.53-6.59,2.35
			c0.29,0.35,0.58,0.7,0.87,1.06C201.24,348.98,203.59,348.18,205.67,347.38z"/>
		<path class="st12" d="M187.65,187.3c0.21,1.27,0.53,2.5,0.87,3.72c2.39,2.22,4.44,4.64,4.52,4.64c1.67-0.48,3.21-1.19,4.59-2.11
			c-2.99-4.38-5.19-9.5-9.61-12.52C188.11,182.95,187.99,185.22,187.65,187.3z"/>
		<path class="st6" d="M191.88,341.27c0.7,0.73,0.89,0.94,0.97,1.03c2.09-2.33,4.32-3.6,7.38-3.78c-0.13-0.37-0.25-0.75-0.36-1.16
			C196.74,337.51,193.4,338.46,191.88,341.27z"/>
		<path class="st3" d="M193.04,195.65c0.54,0.58,1.08,1.16,1.61,1.72c1.51-0.4,3.04-1.04,4.42-1.9v0c-0.5-0.62-0.98-1.27-1.43-1.93
			C196.26,194.46,194.71,195.17,193.04,195.65z"/>
		<path class="st6" d="M194.44,343.11c0.41,0.48,0.82,1.01,1.34,1.28c1.1-1.79,3.91-2.79,5.84-2.84c-0.84-1.48-0.68-1.45-0.79-1.45
			C198.29,340.1,196.21,341.28,194.44,343.11z"/>
		<path class="st6" d="M196.25,346.16c0.29,0.35,0.58,0.69,0.87,1.04c1.11-0.93,4.36-3.02,6.18-3.08c-0.31-0.43-0.6-0.85-0.89-1.28
			C199.97,342.92,197.61,344.09,196.25,346.16z"/>
		<path class="st14" d="M198.04,196.06c-0.93,0.48-1.92,0.89-2.95,1.19c4.39,5.87,11.47,7.8,17.01,12.07
			c4.63,7.62,5.54,13.71,7.4,17.51c-0.09,0.14-0.18,0.27-0.27,0.41c1.02-0.65,1.95-1.4,2.87-1.86c-1.66-5.93-8.63-18.1-9.11-21.49
			C207.56,202.54,201.22,201.27,198.04,196.06z"/>
		<path class="st6" d="M198.24,348.56c0.29,0.35,0.58,0.7,0.87,1.06c2.13-0.64,4.47-1.44,6.56-2.24c-0.28-0.4-0.56-0.79-0.84-1.17
			C202.59,346.89,200.42,347.74,198.24,348.56z"/>
		<path class="st4" d="M197.63,193.54c0.45,0.67,0.93,1.31,1.43,1.93c3.57-2.22,5.92-5.68,6.33-9.82c-0.45-0.45-0.89-0.9-1.32-1.35
			C203.13,188.2,200.82,191.42,197.63,193.54z"/>
		<polygon class="st10" points="213.17,233.84 220.88,240.4 212.89,245.07 201.84,240.46 		"/>
		<path class="st21" d="M199.06,195.48c-0.33,0.21-0.67,0.4-1.02,0.58c3.18,5.21,9.52,6.48,14.95,7.83
			c0.48,3.39,7.46,15.56,9.11,21.49c0.74-0.37,1.54-0.61,2.52-0.61c2.53,0,3.52,0.93,4.39,1.57c-6.23-25.87-14.46-30.42-23.71-39.92
			C204.68,190.31,202.32,193.46,199.06,195.48L199.06,195.48z"/>
		<path class="st14" d="M215.62,234.55c0.22,0.65,0.51,1.27,0.89,1.83c0.63,0.45,1.31,0.79,1.97,0.8c1.55-2.3,0.48-2.03-0.16-3.61
			c0.27-1.12,0.6-2.21,1.55-2.85c-0.13,0.43-0.23,0.87-0.23,1.32c0,1.8,0.9,5.74,1.51,7.58c0.28,0.32,0.61,0.59,0.99,0.79
			c0.37-0.1,0.63-0.25,0.82-0.44c-0.8-1.9-1.58-3.75-1.58-7.34c0-2.39,0.25-4.7,0.32-7.04c-0.81,0.47-1.58,1.07-2.47,1.64
			c-1.07,1.52-2.72,2.96-3.55,4.58C215.64,232.66,215.6,233.7,215.62,234.55z"/>
		<path class="st16" d="M221.18,310.26c-1.15,0.83-2.44,1.48-3.86,1.48c-0.07,1.42-0.1,2.84-0.11,4.27c0.1,0.51,0.22,1,0.37,1.49
			c3.2,3.2,3.86,1.87,16.35,5.61c2.34,1.34,5.03,2.87,7.25,4.03c5.47,0.7,13.03,2.68,16.1-2.34c-0.11-0.87-0.29-1.72-0.57-2.52
			c-2.1-2.02-4.08-3.05-5.45-3.65c-0.08-0.1-0.17-0.19-0.25-0.28c-2.77,1.42-5.62,3.32-7.58,5.51c-6.75-6.35-12.73-8.01-16.83-11.94
			c-0.3,0.26-0.62,0.51-0.98,0.71c-1.24,0.09-2.32,0.02-3.44-0.56C221.88,311.58,221.47,310.86,221.18,310.26z"/>
		<path class="st27" d="M217.59,317.5c0.28,0.97,0.65,1.91,1.13,2.8c5.69,3.09,10.68,2.81,15.75,4.52c2.15,1.53,4.77,3.37,6.76,4.48
			c4.79,0.8,7.94,0.83,12.91-0.1c1.3-0.87,2.38-1.87,3.26-3.23c-0.03-0.4-0.06-0.79-0.12-1.18c-3.06,5.02-10.61,3.04-16.1,2.34
			c-2.22-1.16-4.91-2.69-7.25-4.03C222.02,319.54,220.34,320.55,217.59,317.5z"/>
		<path class="st25" d="M219.88,230.72c-0.95,0.64-1.28,1.73-1.55,2.85c0.32,0.78,0.74,1.11,0.89,1.52
			c0.27,0.08,0.55,0.14,0.84,0.18c-0.25-1.32-0.42-2.52-0.42-3.23C219.65,231.58,219.75,231.15,219.88,230.72z"/>
		<path class="st25" d="M223.45,230.42c-1.22,1.02-0.77,3.36-0.41,4.93c0.5-0.04,1.01-0.11,1.51-0.2
			C224.08,233.44,223.74,231.63,223.45,230.42z"/>
		<path class="st25" d="M225.79,229.25c0.23,1.28,1.18,3.21,1.88,5.07c0.23-0.08,0.45-0.16,0.67-0.25
			C227.73,232.42,226.99,230.66,225.79,229.25z"/>
		<path class="st21" d="M225.79,229.25c2.33,2.73,2.91,6.77,4.2,8.81c0.61,0.11,1.21-0.01,1.79-0.36c0.59-1.55-1.68-6.05-2.48-7.49
			c1.9,1.71,2.88,4.59,4.31,5.92c0.42-0.04,0.77-0.23,1.05-0.5c0.3-4.19-2.66-6.33-5.58-9.01c-0.02-0.09-0.04-0.19-0.07-0.28
			c-0.87-0.65-1.86-1.57-4.39-1.57c-1.1,0-1.99,0.3-2.92,0.83c-0.07,2.34-0.32,4.65-0.32,7.04c0,3.59,0.79,5.44,1.58,7.34
			c0.42-0.41,0.53-1,0.81-1.68c-0.54-2.37-2.04-6.45-0.33-7.87c0.52,2.12,1.13,5.91,2.35,7.9c0.72,0.32,1.71,0.57,2.45,0.29
			C229.23,236.42,226.22,231.67,225.79,229.25z"/>
		<path class="st28" d="M238.3,307.84c-0.49-0.96-1.16-1.84-2.11-2.31c-6.1,0.9-7.26,4.36-9.58,6.39
			c4.1,3.93,10.08,5.59,16.83,11.94c1.96-2.19,4.81-4.09,7.58-5.51c-0.31-0.32-0.64-0.59-1.01-0.77c-0.02-0.07-0.05-0.15-0.07-0.22
			c-0.1-0.04-0.19-0.09-0.29-0.14c-1.79,0.78-4.58,3.41-6.25,4.49c-0.47-0.22-0.89-0.51-1.29-0.85c1.64-1.63,3.93-3.54,6.19-4.46
			c-0.53-0.38-1.04-0.8-1.55-1.25v0c-2.64,0.64-4.77,2.2-6.48,4.26c-0.3-0.35-0.6-0.71-0.93-1.05c3.1-3.73,5.89-4.25,6.08-4.44
			c-0.5-0.47-1-0.95-1.51-1.4l0,0c-2.41,0.55-4.5,2.1-6.12,3.96c-0.44-0.43-0.83-0.93-1.22-1.41c2.05-2.45,4.25-3.43,5.6-3.96
			c-0.51-0.36-1.03-0.68-1.58-0.94c-1.01,0.45-2.28,0.8-3.1,1.3c-1.18,0.73-1.98,1.82-2.96,2.72c-0.37-0.47-0.72-0.97-1.1-1.42
			c1.55-1.51,3.62-3.55,5.66-4.01c-0.25-0.31-0.52-0.62-0.79-0.94C238.31,307.84,238.31,307.84,238.3,307.84z"/>
		<path class="st25" d="M229.3,230.21c0.44,0.79,0.92,1.76,1.36,2.74c0.19-0.11,0.37-0.23,0.54-0.35
			C230.65,231.74,230.04,230.88,229.3,230.21z"/>
		<path class="st6" d="M233.45,312.78c0.38,0.46,0.73,0.95,1.1,1.42c0.97-0.9,1.77-1.99,2.96-2.72c0.82-0.51,2.08-0.85,3.1-1.3
			c-0.22-0.11-0.45-0.2-0.68-0.28c-0.24-0.4-0.52-0.76-0.81-1.12C237.07,309.24,235,311.27,233.45,312.78z"/>
		<path class="st6" d="M236.58,315.08c0.39,0.49,0.78,0.98,1.22,1.41c1.62-1.86,3.72-3.4,6.12-3.96l0,0
			c-0.57-0.51-1.15-0.99-1.75-1.42C240.82,311.65,238.63,312.63,236.58,315.08z"/>
		<path class="st6" d="M239.35,318.38c0.32,0.34,0.62,0.69,0.93,1.05c1.71-2.05,3.84-3.62,6.48-4.26v0
			c-0.45-0.39-0.89-0.81-1.33-1.23l0,0C242.98,314.84,241.03,316.35,239.35,318.38z"/>
		<path class="st6" d="M242.11,320.87c0.4,0.34,0.82,0.63,1.29,0.85c1.67-1.08,4.46-3.71,6.25-4.49c-0.46-0.23-0.91-0.51-1.34-0.82
			C246.03,317.33,243.74,319.24,242.11,320.87z"/>
	</g>
	<path class="st29" d="M120.69,287.31v5.54c5.83,3.36,59.42,34.3,62.37,36.01c0-1.19,0-3.01,0-5.54L120.69,287.31z"/>
	<polygon class="st6" points="130.29,298.39 130.29,370.41 135.08,373.18 135.08,301.16 	"/>
	<polygon class="st30" points="135.08,301.16 135.08,373.18 139.88,370.41 139.88,303.93 	"/>
	<path class="st31" d="M153.69,284.34l29.37,16.95l21.52-12.42c-7.01-4.05-25.35-14.64-29.37-16.95
		C171.99,273.78,166.3,277.06,153.69,284.34z"/>
	<polygon class="st32" points="155.57,281.06 156.96,282.45 164.55,278.07 	"/>
	<polygon class="st33" points="156.96,282.45 155.57,281.06 155.57,281.51 156.68,282.62 	"/>
	<polygon class="st32" points="166.95,292.45 176.33,301.83 180.69,300.38 	"/>
	<polygon class="st33" points="176.33,301.83 166.95,292.45 165.9,291.84 176.33,302.28 	"/>
	<polygon class="st33" points="176.33,301.83 176.33,302.28 181.18,300.66 180.69,300.38 	"/>
	<polygon class="st32" points="178.06,273.57 190.25,280.61 181.92,272.28 	"/>
	<polygon class="st6" points="178.26,326.09 178.26,398.11 183.06,400.88 183.06,328.86 	"/>
	<path class="st33" d="M183.05,301.3l-29.37-16.95v0.45c3.26,1.88,29.27,16.9,29.37,16.95V301.3z"/>
	<polygon class="st30" points="183.06,328.86 183.06,400.88 187.86,398.11 187.86,326.09 	"/>
	<path class="st30" d="M183.06,328.86c15.23-8.8,126.57-73.07,148.73-85.87v-5.54l-148.73,85.87
		C183.06,325.85,183.06,327.67,183.06,328.86z"/>
	<path class="st5" d="M185.54,260.87v2.28l30.27,17.48c0-0.8,0-1.48,0-2.28L185.54,260.87z"/>
	<polygon class="st32" points="191.87,296.65 202.69,293.04 201.02,291.37 	"/>
	<polygon class="st34" points="199.87,267.03 202.52,268.56 206.44,266.29 203.8,264.76 	"/>
	<polygon class="st33" points="202.69,293.04 191.87,296.65 190.05,297.71 202.69,293.49 	"/>
	<polygon class="st34" points="203.12,268.91 205.78,270.44 209.71,268.17 207.06,266.64 	"/>
	<polygon class="st34" points="204.34,264.44 206.99,265.98 210.92,263.71 208.27,262.18 	"/>
	<path class="st35" d="M204.57,288.87l-21.52,12.42v0.45c2.04-1.18,20.48-11.82,21.52-12.42V288.87z"/>
	<polygon class="st34" points="206.39,270.79 209.04,272.32 212.97,270.05 210.32,268.52 	"/>
	<polygon class="st34" points="207.6,266.33 210.25,267.86 214.18,265.59 211.53,264.06 	"/>
	<polygon class="st34" points="208.81,261.86 211.46,263.39 215.39,261.12 212.74,259.6 	"/>
	<polygon class="st34" points="209.65,272.67 212.3,274.2 216.23,271.93 213.58,270.4 	"/>
	<polygon class="st34" points="210.86,268.21 213.51,269.74 217.44,267.47 214.79,265.94 	"/>
	<polygon class="st34" points="212.07,263.74 214.72,265.28 218.05,263.35 218.14,262.71 216,261.48 	"/>
	<polygon class="st29" points="212.89,245.76 202.37,251.83 202.53,251.92 213.02,245.87 	"/>
	<polygon class="st34" points="212.91,274.56 215.56,276.09 216.34,275.63 216.81,272.3 	"/>
	<polygon class="st5" points="213.65,245.51 212.89,245.07 212.89,245.76 213.02,245.87 	"/>
	<polygon class="st34" points="213.28,259.28 215.93,260.81 218.62,259.25 218.81,257.93 217.21,257.01 	"/>
	<polygon class="st34" points="214.12,270.09 216.77,271.62 216.92,271.54 217.38,268.21 	"/>
	<polygon class="st34" points="215.33,265.63 217.56,266.91 217.95,264.12 	"/>
	<polygon class="st7" points="215.81,278.34 215.81,279.48 215.98,278.25 	"/>
	<polygon class="st7" points="215.81,279.48 215.81,280.62 216.67,280.13 	"/>
	<polygon class="st34" points="216.54,261.16 218.22,262.13 218.52,260.02 	"/>
	<path class="st5" d="M215.81,279.48c1.08,0.81,0.64,0.48,1.96,1.46l4.45-32l-1.96-1.47C219.29,254.48,216.84,272.05,215.81,279.48z
		"/>
	<polygon class="st34" points="217.75,256.7 218.89,257.36 219.08,255.93 	"/>
	<path class="st20" d="M222.22,248.95l-4.45,32l43.59-25.17c4.78-34.36-0.15,1.06,4.45-32L222.22,248.95z"/>
	<polygon class="st36" points="220.45,247.37 216.79,245.26 202.1,253.74 210.58,258.63 219.42,253.54 220.26,247.48 	"/>
	<path class="st37" d="M220.26,247.48l1.96,1.47l43.59-25.17l-1.95-1.47C262.58,223.05,220.67,247.24,220.26,247.48z"/>
	<path class="st38" d="M214.03,179.95c0,1.22,0.06,2.31,0.53,3.48c1.41,3.49,4.83,3.73,8.11,1.85l17.05-9.85
		c4.51-2.6,8.64-9.03,8.64-15.3c0-5.57-3.94-7.7-8.64-4.98l-17.05,9.84C217.99,167.7,214.03,174.35,214.03,179.95z"/>
	<path class="st39" d="M240.71,180.64c0-0.96-0.34-1.63-0.88-1.94c0,0,0,0-0.01,0c-1.91-1.1-5.11,2.38-5.11,5.41
		c0,0.93,0.32,1.6,0.84,1.92C237.32,187.2,240.71,183.82,240.71,180.64z"/>
	<path class="st40" d="M248.95,173.44c-1.89-1.1-5.12,2.35-5.12,5.4c0,0.77,0.22,1.55,0.88,1.94c1.9,1.1,5.12-2.36,5.12-5.4
		C249.82,174.43,249.49,173.75,248.95,173.44z"/>
	<path class="st39" d="M258.06,168.17c-1.91-1.11-5.12,2.38-5.12,5.4c0,0.93,0.32,1.59,0.83,1.91c1.63,1.23,5.17-2.1,5.17-5.37
		C258.94,169.16,258.6,168.49,258.06,168.17z"/>
	<g>
		<path class="st41" d="M231.07,193.02c-1.47-1.13-2.28-3.15-2.28-5.71c0-5.72,4.03-12.7,8.98-15.55l16.79-9.7
			c5.14-2.97,9.43-0.49,9.43,5.45c0,5.72-4.03,12.7-8.98,15.55c-0.77,0.45-16.29,9.4-16.84,9.72l-7.1,10.78V193.02z M255.01,162.83
			l-16.79,9.7c-4.7,2.71-8.53,9.34-8.53,14.78c0,2.37,0.74,4.19,2.09,5.12l0.19,0.13v8l5.57-8.46c0.22-0.13,16.05-9.27,17.02-9.83
			c4.7-2.71,8.53-9.34,8.53-14.78C263.1,162.23,259.54,160.22,255.01,162.83z"/>
	</g>
	<path class="st42" d="M262.65,246.47l-0.18,1.27c0.08,0-0.69-0.19,14.13,3.87v-1.32C261.77,246.23,262.74,246.47,262.65,246.47z"/>
	<path class="st43" d="M263.61,239.62l-0.89,6.41l13.56,3.71l4.47-5.44C263.2,239.51,263.69,239.62,263.61,239.62z"/>
	<polygon class="st6" points="264.62,281.77 264.62,292.85 269.42,295.62 269.42,279 	"/>
	<polygon class="st30" points="274.21,276.23 269.42,279 269.42,295.62 274.21,292.85 	"/>
	<path class="st44" d="M276.27,249.75l-13.56-3.71l-0.06,0.44c0.08,0-0.74-0.2,13.96,3.82l5.07-6.18l-18.01-4.93l-0.06,0.44
		c0.08,0-0.42-0.12,17.13,4.68L276.27,249.75z"/>
	<polygon class="st45" points="281.68,244.11 276.61,250.29 276.61,251.61 281.68,245.43 	"/>
	<path class="st46" d="M291.3,195.02c-1.22,5.93-0.96,10.77,0,14.34c4.63,17.28,1.67,6.23,4.1,15.3l2.43-1.4l0.52-2.52l-2.42-7.25
		c-1.04-3.11-1.14-6.74,0-10.51l2.2-7.29l-3.72-15.85L291.3,195.02z"/>
	<path class="st47" d="M292.48,225.33c1.69,2.4,7.7,3.29,11.14,1c2.1-1.4,2.17-3.5,0.07-4.95l-1.23,4.06l-2.43,0.38l-1.69-5.07
		l-0.52,2.52l-2.43,1.4l-1.02-3.8C292.38,221.81,291.21,223.51,292.48,225.33z"/>
	<path class="st48" d="M295.93,202.98c-1.14,3.77-1.04,7.4,0,10.51c2.92,8.74,2,6,4.11,12.32l2.43-0.38
		c1.87-6.17,1.37-4.54,1.58-5.24c1.07-3.53,1.06-6.97,0.16-10c-1.34-4.54-2.62-8.89-5.17-17.52
		C297.89,196.48,298.59,194.14,295.93,202.98z"/>
	<path class="st12" d="M300.33,197.07l3.37,11.42c0.67-4.4,1.56-9.63,0.43-15.01l-2-9.54L300.33,197.07z"/>
	<path class="st21" d="M301.57,228.02c5.26-1.26,6.53-5.24,2.38-7.49h0l-0.25,0.84c2.1,1.45,2.02,3.55-0.07,4.95
		c-3.45,2.31-9.46,1.39-11.14-1c-1.26-1.8-0.11-3.51,1.9-4.47l-0.21-0.78c-4.13,1.6-4.62,4.97-1.17,6.97
		C295.36,228.4,298.78,228.69,301.57,228.02z"/>
	<path class="st49" d="M305.82,225.57c-2.19,3.06-8.96,3.7-12.81,1.47c-1.28-0.74-2.01-1.66-2.23-2.6c-0.5,2.18,1.69,3.82,3.8,4.52
		c3.78,1.25,7.93,0.49,10.05-1.03c0.56-0.4,0.95-0.77,1.32-1.33c0,0,0.01-0.01,0.01-0.02c0.57-0.93,0.46-1.57,0.46-2.63
		C306.4,224.48,306.21,225.02,305.82,225.57z"/>
	<path class="st50" d="M306.42,223.94c0,1.13,0.1,1.72-0.46,2.63c-0.05,0.1-0.32,0.46-0.48,0.62c-0.31,0.37-1.05,0.92-1.55,1.17
		c-0.8,0.48-2.52,1.03-3.97,1.15c-2.19,0.27-5.03-0.13-6.95-1.25c-1.45-0.85-2.61-2.16-2.23-3.82c-0.06-0.25-0.08-0.5-0.06-0.76h0
		c-5.33,5.46-3.51,13.3,2.46,18.16c2.48,2.11,8.11,2.23,10.77,0c6.64-5.56,7.31-13.19,2.47-18.16
		C306.42,223.77,306.42,223.86,306.42,223.94z"/>
	<polygon class="st6" points="312.6,254.07 312.6,320.55 317.39,323.32 317.39,251.31 	"/>
	<polygon class="st30" points="322.19,248.53 317.39,251.31 317.39,323.32 322.19,320.55 	"/>
	<g class="st51">
		<polygon class="st19" points="269.42,279 269.42,295.62 241.79,294.95 250.39,289.79 264.62,289.87 264.62,281.77 		"/>
		<path class="st10" d="M312.59,320.42l4.81,2.9v-63.8c4.39-2.61,2.66-1.79,4.8-3.06v-7.92c-3.45,1.96-4.49,2.6-9.59,5.54
			C312.54,275.31,312.67,302.29,312.59,320.42z M187.86,372.03V334.4C187.86,334.4,187.81,362.51,187.86,372.03z M130.29,298.39
			c-0.02,41.24-0.04,24.88,0.13,72.09l4.67,2.76l4.8-2.8c0-61.18-0.14-66.51,0-66.51c0.32,0.04,19.06,10.79,19.06,11.01l19.4,11.23
			c-0.13,78.93,0.03,69.44-0.29,72.14l5,2.58v-64.05l4.8-2.43v-8.19c-2.73,1.55-4.5,2.54-4.8,2.65c-0.02-0.76,0.02-4.77,0-5.54
			c-10.34-5.97-62.29-36.01-62.37-36.01c-0.18,0-0.01,5.32,0,5.54C121.63,293.4,129.31,297.83,130.29,298.39z"/>
		<path class="st10" d="M220.26,247.42c0,0,1.74,1.27,1.96,1.47c-3.93,28.01-4.45,32-4.45,32s-19.48,3-20.34,3.11
			c-0.3-0.14-1.61-0.68-1.61-0.93c0-0.28,11.11-6.52,11.11-6.86c0-0.3-17.16-10.14-22.57-13.26c0.22-0.15,1.17-0.62,1.17-0.62v-1.52
			c0,0,11.24,6.57,23,13.36c3.62-2.08,5.71-3.12,8.68-4.83C217.3,268.68,220.26,247.42,220.26,247.42z"/>
		<polygon class="st19" points="276.68,250.29 276.68,251.61 274.57,251.88 262.4,248.82 262.73,246.47 		"/>
		<path class="st52" d="M292.92,203.21c0.15,3.09,0.43,9.1,0.52,10.98c0.12-0.04,0.24-0.08,0.37-0.12c0.2-0.07,0.53-0.92,0.74-1.89
			c0.21-0.97,0.9-0.48,0.9-0.48c2.44,8.01,1.97,6.25,4.59,14.12c0,0-4.67,0.05-8.64,0.11c0,0.1,0,0.2,0,0.3c0,0.38,2.81,1.68,3.46,2
			c0.69,0.06,3.76,0.35,4.38,0.41c0,0.28,0.28,0.72,0,0.83c-2.83,1.2-8.38,0.15-8.67,0.44c-0.12,0.12-0.13,0.52-0.01,0.88
			c0.11,0.36,0.99,1.44,1.95,2.39c0.96,0.95,2.54,2.22,3.52,2.8c0.98,0.59,2.65,1.38,3.71,1.76c1.07,0.38,3.01,0.77,4.32,0.86
			c0.8,0.05,3.08-0.21,3.08-0.21c-0.83,1.23-3.21,3.45-3.21,3.45c-2.29,1.34-2.55,2.24-6.83,3.74c-1.03,0.06-5.64,0.31-6.58,0.36
			c-4.89-0.84-6.4-1.15-10.27-4.1c-0.58,0.05-5.27,0.41-5.38,0.42c-0.85-0.26-3.29-1.01-3.93-1.21c-0.35,0.04-7.81,0.83-7.81,0.83
			l0.31-2.41c0,0,1.05-0.05,1.96-0.11c0.45-0.03,0.82-0.2,0.82-0.38c0-0.18-0.29-0.33-0.65-0.33s-0.65-0.11-0.65-0.25
			c0-0.33,10.5-2.11,10.95-2.19c0.6,0.01,5.29,0.09,5.88,0.1c1.18-0.58,3.62-1.85,4.89-2.09c0.35-0.07,0.71-0.13,1.06-0.2
			c-0.03-0.37-0.28-4-0.3-4.36c0.24-0.64,0.48-1.27,0.72-1.91c0.4-1.05,1.15-2.39,1.67-2.98c0.52-0.59,0.95-1.33,0.95-1.63
			c0-0.3,0.45-1,0.99-1.54c0.33-0.33,0.66-0.66,0.99-0.99c0.28,0.07,1.62,0.45,1.62,0.25c0-0.21-2.28-8.53-2.36-8.84
			C292.34,207.06,292.36,206.14,292.92,203.21L292.92,203.21z"/>
		<path class="st19" d="M187.94,326.16c11.82-6.73,41.23-23.88,47.22-27.38L187.94,326.16z"/>
		<path class="st19" d="M134.65,402.77c-0.25,0.14-0.51,0.29-0.79,0.45L134.65,402.77z"/>
		<path class="st19" d="M133.86,403.22c-0.37,0.21-0.75,0.43-1.17,0.67L133.86,403.22z"/>
		<path class="st19" d="M129.76,405.57c-0.52,0.29-1.07,0.61-1.66,0.95L129.76,405.57z"/>
	</g>
</g>
<path class="st2" d="M14.42,278.43c-4.81,2.78-4.81,7.28,0,10.06c4.81,2.78,12.62,2.78,17.43,0c4.81-2.78,4.81-7.28,0-10.06
	C27.04,275.65,19.24,275.65,14.42,278.43z"/>
<path class="st2" d="M269.86,390.71c-3.4,1.96-3.4,5.15,0,7.11c3.4,1.96,8.92,1.96,12.32,0c3.4-1.96,3.4-5.15,0-7.11
	S273.26,388.75,269.86,390.71z"/>
<g>
	<path class="st53" d="M-187.18,307.14c0,0.28,0.06,0.48,0.17,0.59c0.11,0.12,0.31,0.17,0.59,0.17h2.94l0.06,0.92
		c-0.78,0.07-1.84,0.11-3.19,0.11c-1.18,0-1.76-0.54-1.76-1.63v-6.67h1.2V307.14z"/>
	<path class="st53" d="M-177.54,307.95l0.11,0.77c-0.26,0.11-0.62,0.2-1.06,0.26c-0.44,0.06-0.86,0.09-1.26,0.09
		c-0.69,0-1.24-0.1-1.64-0.3c-0.41-0.2-0.71-0.52-0.89-0.97c-0.19-0.45-0.28-1.05-0.28-1.81c0-0.77,0.09-1.38,0.28-1.82
		c0.19-0.45,0.48-0.77,0.87-0.96c0.39-0.19,0.91-0.29,1.56-0.29c0.9,0,1.55,0.16,1.96,0.49c0.41,0.33,0.61,0.82,0.61,1.48
		c0,0.54-0.12,0.96-0.35,1.25c-0.24,0.29-0.59,0.43-1.07,0.43h-2.63c0.04,0.42,0.12,0.73,0.25,0.95c0.13,0.22,0.31,0.37,0.55,0.46
		c0.24,0.08,0.55,0.13,0.95,0.13C-179.07,308.09-178.39,308.04-177.54,307.95z M-180.71,304.05c-0.22,0.1-0.38,0.28-0.48,0.53
		c-0.1,0.25-0.16,0.61-0.18,1.08h2.34c0.38,0,0.58-0.26,0.58-0.78c-0.01-0.36-0.11-0.61-0.31-0.76c-0.2-0.15-0.54-0.22-1.04-0.22
		C-180.19,303.89-180.49,303.94-180.71,304.05z"/>
	<path class="st53" d="M-173.04,302.91c0.71,0,1.24,0.14,1.57,0.43c0.34,0.29,0.5,0.79,0.5,1.5v4.08h-0.91l-0.13-0.92
		c-0.26,0.27-0.6,0.51-1.01,0.72c-0.41,0.21-0.85,0.31-1.33,0.31c-0.54,0-0.98-0.14-1.3-0.43c-0.32-0.29-0.49-0.7-0.49-1.22v-0.61
		c0-0.46,0.14-0.82,0.43-1.08c0.29-0.26,0.7-0.38,1.22-0.38h2.35v-0.46c-0.01-0.36-0.09-0.61-0.25-0.74
		c-0.16-0.14-0.46-0.2-0.91-0.2c-0.44,0-1.27,0.05-2.48,0.14l-0.11-0.85 M-174.76,307.85c0.14,0.13,0.35,0.19,0.65,0.19
		c0.3,0,0.62-0.07,0.98-0.2c0.36-0.14,0.69-0.34,1-0.63v-1.04h-2.14c-0.26,0.01-0.44,0.07-0.54,0.2c-0.1,0.13-0.16,0.31-0.16,0.55
		v0.31C-174.96,307.52-174.89,307.72-174.76,307.85z"/>
	<path class="st53" d="M-165.46,302.91l-0.13,1.09h-0.36c-0.29,0-0.58,0.05-0.88,0.15c-0.3,0.1-0.7,0.27-1.22,0.52v4.25h-1.16v-5.86
		h0.9l0.12,0.9c0.88-0.7,1.7-1.06,2.46-1.06H-165.46z"/>
	<path class="st53" d="M-159.53,303.32c0.27,0.28,0.4,0.68,0.4,1.21v4.39h-1.16v-4.06c0-0.37-0.05-0.62-0.16-0.76
		c-0.11-0.14-0.3-0.21-0.58-0.21c-0.3,0-0.61,0.07-0.92,0.2c-0.31,0.14-0.73,0.36-1.25,0.67l0.01,4.15h-1.16v-5.86h0.98l0.07,0.89
		c0.93-0.7,1.79-1.04,2.59-1.04C-160.2,302.91-159.8,303.05-159.53,303.32z"/>
	<path class="st53" d="M-146.37,303.32c0.27,0.28,0.4,0.68,0.4,1.21v4.39h-1.14v-4.06c-0.01-0.34-0.08-0.59-0.2-0.74
		c-0.13-0.15-0.34-0.23-0.65-0.23c-0.26,0-0.52,0.06-0.76,0.18c-0.24,0.12-0.59,0.35-1.06,0.68v4.16h-1.12v-4.06
		c0-0.35-0.07-0.6-0.2-0.75c-0.14-0.15-0.35-0.22-0.65-0.22c-0.26,0-0.51,0.06-0.75,0.18c-0.24,0.12-0.6,0.34-1.06,0.67v4.18h-1.15
		v-5.86h0.96l0.06,0.89c0.4-0.34,0.79-0.6,1.18-0.78c0.38-0.18,0.78-0.26,1.18-0.26c0.8,0,1.3,0.34,1.49,1.02
		c0.78-0.68,1.54-1.02,2.3-1.02C-147.03,302.91-146.64,303.05-146.37,303.32z"/>
	<path class="st53" d="M-140.05,303.21c0.4,0.21,0.7,0.53,0.88,0.98c0.18,0.45,0.28,1.05,0.28,1.81c0,0.75-0.09,1.35-0.28,1.79
		c-0.18,0.44-0.48,0.77-0.88,0.97c-0.4,0.2-0.95,0.31-1.64,0.31c-0.69,0-1.23-0.1-1.64-0.31c-0.4-0.2-0.7-0.53-0.88-0.97
		c-0.18-0.44-0.28-1.04-0.28-1.79c0-0.76,0.09-1.36,0.28-1.81c0.18-0.45,0.48-0.77,0.88-0.98c0.4-0.2,0.95-0.31,1.64-0.31
		C-141,302.91-140.45,303.01-140.05,303.21z M-142.64,304.08c-0.22,0.12-0.38,0.34-0.48,0.63c-0.1,0.3-0.14,0.73-0.14,1.29
		c0,0.55,0.05,0.98,0.14,1.28c0.1,0.3,0.26,0.51,0.48,0.64c0.22,0.12,0.54,0.19,0.96,0.19c0.42,0,0.74-0.06,0.96-0.19
		c0.22-0.13,0.38-0.34,0.48-0.64c0.1-0.3,0.14-0.73,0.14-1.28c0-0.56-0.05-0.99-0.14-1.29c-0.1-0.3-0.26-0.51-0.48-0.63
		c-0.22-0.13-0.54-0.19-0.96-0.19C-142.1,303.89-142.42,303.95-142.64,304.08z"/>
	<path class="st53" d="M-133.61,302.91l-0.13,1.09h-0.36c-0.29,0-0.58,0.05-0.88,0.15c-0.3,0.1-0.7,0.27-1.22,0.52v4.25h-1.16v-5.86
		h0.9l0.12,0.9c0.88-0.7,1.7-1.06,2.46-1.06H-133.61z"/>
	<path class="st53" d="M-127.88,307.95l0.11,0.77c-0.26,0.11-0.62,0.2-1.06,0.26c-0.44,0.06-0.86,0.09-1.26,0.09
		c-0.69,0-1.24-0.1-1.64-0.3c-0.41-0.2-0.71-0.52-0.89-0.97c-0.19-0.45-0.28-1.05-0.28-1.81c0-0.77,0.09-1.38,0.28-1.82
		c0.19-0.45,0.48-0.77,0.87-0.96c0.39-0.19,0.91-0.29,1.56-0.29c0.9,0,1.55,0.16,1.96,0.49c0.41,0.33,0.61,0.82,0.61,1.48
		c0,0.54-0.12,0.96-0.35,1.25c-0.24,0.29-0.59,0.43-1.07,0.43h-2.63c0.04,0.42,0.12,0.73,0.25,0.95c0.13,0.22,0.31,0.37,0.55,0.46
		c0.24,0.08,0.55,0.13,0.95,0.13C-129.42,308.09-128.73,308.04-127.88,307.95z M-131.05,304.05c-0.22,0.1-0.38,0.28-0.48,0.53
		c-0.1,0.25-0.16,0.61-0.18,1.08h2.34c0.38,0,0.58-0.26,0.58-0.78c-0.01-0.36-0.11-0.61-0.31-0.76c-0.2-0.15-0.54-0.22-1.04-0.22
		C-130.53,303.89-130.84,303.94-131.05,304.05z"/>
</g>
<path class="st54" d="M94.96,95.28l-1.03,2.68c-0.08,0.22-0.25,0.43-0.44,0.57l-2.3,1.66c-0.48,0.34-0.66,1.04-0.32,1.17l1.67,0.66
	c0.14,0.05,0.2,0.21,0.17,0.42l-0.39,2.52c-0.08,0.52,0.42,0.59,0.84,0.13l2.06-2.27c0.17-0.19,0.37-0.3,0.54-0.31l2.06-0.11
	c0.43-0.02,0.92-0.67,0.84-1.1l-0.39-2.06c-0.03-0.17,0.03-0.4,0.17-0.61l1.67-2.58c0.34-0.53,0.15-1.01-0.32-0.8l-2.3,0.99
	c-0.19,0.08-0.35,0.06-0.44-0.07L96,94.68C95.78,94.37,95.17,94.73,94.96,95.28z"/>
<path class="st55" d="M38.5,204.04l-1.03,2.68c-0.08,0.22-0.25,0.43-0.44,0.57l-2.3,1.66c-0.48,0.34-0.67,1.04-0.32,1.17l1.67,0.66
	c0.14,0.05,0.2,0.21,0.17,0.42l-0.39,2.52c-0.08,0.52,0.42,0.59,0.84,0.13l2.06-2.27c0.17-0.19,0.37-0.3,0.54-0.31l2.06-0.11
	c0.43-0.02,0.92-0.67,0.84-1.1l-0.39-2.06c-0.03-0.17,0.03-0.4,0.17-0.61l1.67-2.58c0.34-0.53,0.15-1.01-0.32-0.8l-2.3,0.99
	c-0.19,0.08-0.35,0.06-0.44-0.07l-1.03-1.49C39.33,203.13,38.71,203.48,38.5,204.04z"/>
<g>
	<path class="st56" d="M200.12,104.03l-1.78,4.63c-0.15,0.38-0.43,0.75-0.75,0.98l-3.98,2.87c-0.82,0.59-1.15,1.79-0.55,2.03
		l2.88,1.14c0.24,0.09,0.34,0.36,0.29,0.72l-0.68,4.35c-0.14,0.9,0.72,1.03,1.45,0.22l3.56-3.92c0.29-0.32,0.64-0.52,0.93-0.54
		l3.56-0.18c0.73-0.04,1.59-1.16,1.45-1.89l-0.68-3.57c-0.06-0.29,0.05-0.69,0.29-1.05l2.88-4.47c0.59-0.92,0.27-1.74-0.55-1.39
		l-3.98,1.72c-0.33,0.14-0.61,0.1-0.75-0.11l-1.78-2.58C201.55,102.46,200.49,103.07,200.12,104.03z"/>
	<path class="st56" d="M179.95,115.67l-1.78,4.63c-0.15,0.38-0.43,0.75-0.75,0.98l-3.98,2.87c-0.82,0.59-1.15,1.79-0.55,2.03
		l2.88,1.14c0.24,0.09,0.34,0.36,0.29,0.72l-0.68,4.35c-0.14,0.9,0.72,1.03,1.45,0.22l3.56-3.92c0.29-0.32,0.64-0.52,0.93-0.54
		l3.56-0.18c0.73-0.04,1.59-1.16,1.45-1.89l-0.68-3.57c-0.06-0.29,0.05-0.69,0.29-1.05l2.88-4.47c0.59-0.92,0.27-1.74-0.55-1.39
		l-3.98,1.72c-0.33,0.14-0.61,0.1-0.75-0.11l-1.78-2.58C181.38,114.11,180.32,114.72,179.95,115.67z"/>
	<path class="st56" d="M159.78,127.32l-1.78,4.63c-0.15,0.38-0.43,0.75-0.75,0.98l-3.98,2.87c-0.82,0.59-1.15,1.79-0.55,2.03
		l2.88,1.14c0.24,0.09,0.34,0.36,0.29,0.72l-0.68,4.35c-0.14,0.9,0.72,1.03,1.45,0.22l3.56-3.92c0.29-0.32,0.64-0.52,0.93-0.54
		l3.56-0.18c0.73-0.04,1.59-1.16,1.45-1.89l-0.68-3.57c-0.06-0.29,0.05-0.69,0.29-1.05l2.88-4.47c0.59-0.92,0.27-1.74-0.55-1.39
		l-3.98,1.72c-0.33,0.14-0.61,0.1-0.75-0.11l-1.78-2.58C161.21,125.75,160.15,126.36,159.78,127.32z"/>
	<path class="st30" d="M139.61,138.97l-1.78,4.63c-0.15,0.38-0.43,0.75-0.75,0.98l-3.98,2.87c-0.82,0.59-1.15,1.79-0.55,2.03
		l2.88,1.14c0.24,0.09,0.34,0.36,0.29,0.72l-0.68,4.35c-0.14,0.9,0.72,1.03,1.45,0.22l3.56-3.92c0.29-0.32,0.64-0.52,0.93-0.54
		l3.56-0.18c0.73-0.04,1.59-1.16,1.45-1.89l-0.68-3.57c-0.06-0.29,0.05-0.69,0.29-1.05l2.88-4.47c0.59-0.92,0.27-1.74-0.55-1.39
		l-3.98,1.72c-0.33,0.14-0.61,0.1-0.75-0.11l-1.78-2.58C141.04,137.4,139.98,138.01,139.61,138.97z"/>
	<path class="st30" d="M119.44,150.61l-1.78,4.63c-0.15,0.38-0.43,0.75-0.75,0.98l-3.98,2.87c-0.82,0.59-1.15,1.79-0.55,2.03
		l2.88,1.14c0.24,0.09,0.34,0.36,0.29,0.72l-0.68,4.35c-0.14,0.9,0.72,1.03,1.45,0.22l3.56-3.92c0.29-0.32,0.64-0.52,0.93-0.54
		l3.56-0.18c0.73-0.04,1.59-1.16,1.45-1.89l-0.68-3.57c-0.06-0.29,0.05-0.69,0.29-1.05l2.88-4.47c0.59-0.92,0.27-1.74-0.55-1.39
		l-3.98,1.72c-0.33,0.14-0.61,0.1-0.75-0.11l-1.78-2.58C120.87,149.04,119.81,149.66,119.44,150.61z"/>
</g>
<g>
	<g>
		<polygon class="st57" points="65.31,158.43 65.31,194.36 71.18,190.97 71.18,155.04 		"/>
		<polygon class="st30" points="82.9,148.27 82.9,184.2 88.77,180.82 88.77,144.89 		"/>
		<polygon class="st58" points="71.18,165.23 71.18,190.97 77.04,187.59 77.04,161.85 		"/>
		<polygon class="st59" points="77.04,167.79 77.04,187.59 82.9,184.2 82.9,164.41 		"/>
		<polygon class="st60" points="88.77,161.02 88.77,180.82 94.63,177.43 94.63,157.64 		"/>
		<polygon class="st58" points="59.45,137.2 59.45,197.74 65.31,194.36 65.31,133.82 		"/>
	</g>
	<polygon class="st61" points="94.63,177.43 94.63,111.83 95.48,111.34 95.48,176.94 95.48,177.79 94.63,178.28 46.38,206.13 
		46.38,205.29 	"/>
</g>
<path class="st62" d="M266.85,133.76l-5.46,11.19c-0.62,1.28-0.39,2.39,0.53,2.49c0.92,0.09,2.17-0.87,2.79-2.15l5.46-11.19
	c3.99-0.75,8.76-4.96,11.37-10.31c3.01-6.18,2.01-11.54-2.25-11.97c-4.25-0.43-10.15,4.22-13.16,10.4
	C263.53,127.57,263.94,132.3,266.85,133.76z M268,122.41c2.29-4.69,6.76-8.22,9.99-7.89c3.23,0.33,3.99,4.4,1.7,9.08
	c-2.29,4.69-6.76,8.22-9.99,7.89S265.71,127.1,268,122.41z"/>
<g>
	<g>
		<path class="st30" d="M71.33,293.75l40.73-23.52c1.92-1.11,3.48-3.56,3.48-5.48v-59.97c0-1.92-1.56-2.58-3.48-1.47l-40.73,23.52
			c-1.92,1.11-3.48,3.56-3.48,5.48v59.97C67.86,294.2,69.42,294.86,71.33,293.75z"/>
		<path class="st38" d="M79.8,227.21l23.81-13.74c1.56-0.9,2.82-2.89,2.82-4.45l0,0c0-2.47-2-3.32-4.47-1.89l-20.51,11.84
			c-2.47,1.43-4.47,4.58-4.47,7.05l0,0C76.97,227.57,78.24,228.11,79.8,227.21z"/>
	</g>
	<polygon class="st4" points="73.99,243.39 109.41,222.95 109.41,220.02 73.99,240.47 	"/>
	<polygon class="st4" points="73.99,248.59 109.41,228.14 109.41,225.21 73.99,245.66 	"/>
	<polygon class="st63" points="73.99,253.78 109.41,233.33 109.41,230.4 73.99,250.85 	"/>
	<polygon class="st63" points="73.99,258.97 109.41,238.52 109.41,235.6 73.99,256.04 	"/>
	<polygon class="st63" points="73.99,264.16 109.41,243.71 109.41,240.79 73.99,261.23 	"/>
	<polygon class="st63" points="73.99,269.35 109.41,248.9 109.41,245.98 73.99,266.42 	"/>
	<polygon class="st63" points="86.86,267.11 109.41,254.09 109.41,251.17 86.86,264.18 	"/>
</g>
<g>
	<g>
		<path class="st64" d="M217.99,137.01l34.28-19.79c1.62-0.93,2.93-3,2.93-4.61V62.13c0-1.62-1.31-2.17-2.93-1.24l-34.28,19.79
			c-1.62,0.93-2.93,3-2.93,4.61v50.47C215.07,137.39,216.38,137.94,217.99,137.01z"/>
		<path class="st65" d="M225.12,81l20.04-11.57c1.31-0.76,2.38-2.44,2.38-3.75l0,0c0-2.08-1.69-2.79-3.76-1.59l-17.26,9.96
			c-2.08,1.2-3.76,3.86-3.76,5.94v0C222.74,81.31,223.8,81.76,225.12,81z"/>
	</g>
	<g>
		<g>
			<path class="st63" d="M239.07,80.09l8.74-5.04v8.74l-8.74,5.04V80.09z M246.25,77.5l-5.62,3.25v5.62l5.62-3.25V77.5z"/>
		</g>
		<g>
			<path class="st63" d="M239.07,92.68l8.74-5.04v8.74l-8.74,5.04V92.68z M246.25,90.1l-5.62,3.25v5.62l5.62-3.25V90.1z"/>
		</g>
		<g>
			<path class="st63" d="M239.07,105.28l8.74-5.04v8.74l-8.74,5.04V105.28z M246.25,102.7l-5.62,3.25v5.62l5.62-3.25V102.7z"/>
		</g>
	</g>
	<polygon class="st65" points="223.19,94.85 236.39,87.23 236.39,84.77 223.19,92.39 	"/>
	<polygon class="st65" points="223.19,107.45 236.39,99.83 236.39,97.37 223.19,104.99 	"/>
	<polygon class="st65" points="223.19,120.23 236.39,112.61 236.39,110.15 223.19,117.77 	"/>
	<polygon class="st50" points="240.1,98.48 242.13,95.29 240.1,94.43 241.41,92.36 243.44,93.22 245.46,90.02 246.77,90.58 
		244.75,93.77 246.77,94.63 245.46,96.7 243.44,95.84 241.41,99.04 	"/>
	<polygon class="st46" points="239.05,80.64 243.37,82.47 246.25,77.94 247.2,78.34 244.33,82.87 243.37,84.38 242.42,83.98 
		238.1,82.15 	"/>
</g>
<g>
	<path class="st66" d="M136.95,60.95l26.29-15.18c1.01-0.58,1.92-0.71,2.61-0.46l0.01-0.01l0.02,0.01c0.16,0.06,0.3,0.15,0.44,0.25
		l3.88,2.24l-3.13,6.73v37.13c0,2.11-1.71,4.81-3.82,6.03l-22.22,12.83l-2.45,5.27l-3.47-2.17l-0.24-0.16
		c-0.9-0.63-1.72-1.12-1.72-2.2V66.98C133.13,64.87,134.84,62.17,136.95,60.95z"/>
	<g>
		<path class="st63" d="M141.39,115.42l26.29-15.18c2.11-1.22,3.82-3.92,3.82-6.03V49.93c0-2.11-1.71-2.83-3.82-1.62l-26.29,15.18
			c-2.11,1.22-3.82,3.92-3.82,6.03v44.28C137.57,115.92,139.28,116.64,141.39,115.42z"/>
		<path class="st30" d="M143.4,79.02l22.28-12.86c1.1-0.64,1.99-2.04,1.99-3.14v-7.87c0-1.1-0.89-1.48-1.99-0.84L143.4,67.16
			c-1.1,0.64-1.99,2.04-1.99,3.14v7.87C141.41,79.28,142.3,79.65,143.4,79.02z"/>
		<polygon class="st50" points="160.29,78.54 167.67,74.29 167.67,69.7 160.29,73.96 		"/>
		<polygon class="st6" points="150.85,84 158.23,79.74 158.23,75.15 150.85,79.41 		"/>
		<polygon class="st6" points="141.41,89.45 148.78,85.19 148.78,80.61 141.41,84.87 		"/>
		<polygon class="st30" points="160.29,84.99 167.67,80.73 167.67,76.15 160.29,80.41 		"/>
		<polygon class="st30" points="150.85,90.44 158.23,86.18 158.23,81.6 150.85,85.86 		"/>
		<polygon class="st30" points="141.41,95.89 148.78,91.64 148.78,87.05 141.41,91.31 		"/>
		<polygon class="st30" points="160.29,91.44 167.67,87.18 167.67,82.59 160.29,86.85 		"/>
		<polygon class="st30" points="150.85,96.89 158.23,92.63 158.23,88.05 150.85,92.31 		"/>
		<polygon class="st30" points="141.41,102.34 148.78,98.08 148.78,93.5 141.41,97.76 		"/>
		<polygon class="st30" points="160.29,97.88 167.67,93.62 167.67,89.04 160.29,93.3 		"/>
		<polygon class="st30" points="150.85,103.34 158.23,99.08 158.23,94.49 150.85,98.75 		"/>
		<polygon class="st30" points="141.41,108.79 148.78,104.53 148.78,99.95 141.41,104.2 		"/>
	</g>
</g>
<g>
	<path class="st67" d="M216.11,25c6.52-3.76,11.8-2.16,11.8,3.58c0,2.83-1.29,6.14-3.37,9.21c0.02,2.56,2.6,2.26,3.37,2.03
		c0,0-0.84,1.33-3.09,2.63c-2.85,1.65-4.57,1.63-5.6,1.17c-0.99,0.81-2.03,1.55-3.11,2.17c-6.52,3.76-11.8,2.16-11.8-3.58
		C204.31,36.47,209.6,28.76,216.11,25L216.11,25z"/>
	<path class="st58" d="M201.49,56.33c5.12-2.96,9.27-1.7,9.27,2.82c0,4.51-4.15,10.57-9.27,13.52c-0.85,0.49-1.67,0.85-2.45,1.12
		c-0.81,1.3-2.16,2.87-4.4,4.16c-1.77,1.02-2.43,0.74-2.43,0.74c0.6-0.51,2.63-2.62,2.65-4.65c-1.64-0.53-2.65-1.96-2.65-4.18
		C192.22,65.34,196.37,59.29,201.49,56.33L201.49,56.33z"/>
</g>
</svg>
